<svg width="83" height="30" viewBox="0 0 83 30" fill="none" xmlns="http://www.w3.org/2000/svg">
<path d="M13 9.5C13 11.8333 12.6111 13 9.5 13C6.38889 13 6 11.8333 6 9.5C6 7.16667 6.4375 6 9.5 6C12.5625 6 13 7.16667 13 9.5Z" fill="#4A3AFF" stroke="#4A3AFF" stroke-width="1.5" stroke-linecap="round" stroke-linejoin="round"/>
<path d="M13 20.5C13 22.8333 12.6111 24 9.5 24C6.38889 24 6 22.8333 6 20.5C6 18.1667 6.4375 17 9.5 17C12.5625 17 13 18.1667 13 20.5Z" fill="#4A3AFF" stroke="#4A3AFF" stroke-width="1.5" stroke-linecap="round" stroke-linejoin="round"/>
<path d="M24 20.5C24 22.8333 23.6111 24 20.5 24C17.3889 24 17 22.8333 17 20.5C17 18.1667 17.4375 17 20.5 17C23.5625 17 24 18.1667 24 20.5Z" fill="#4A3AFF" stroke="#4A3AFF" stroke-width="1.5" stroke-linecap="round" stroke-linejoin="round"/>
<path d="M37.78 20.16H42.48V22H35.5V8.1H37.78V20.16ZM49.3667 22.18C48.3267 22.18 47.3867 21.9467 46.5467 21.48C45.7067 21 45.0467 20.3333 44.5667 19.48C44.0867 18.6133 43.8467 17.6133 43.8467 16.48C43.8467 15.36 44.0934 14.3667 44.5867 13.5C45.0801 12.6333 45.7534 11.9667 46.6067 11.5C47.4601 11.0333 48.4134 10.8 49.4667 10.8C50.5201 10.8 51.4734 11.0333 52.3267 11.5C53.1801 11.9667 53.8534 12.6333 54.3467 13.5C54.8401 14.3667 55.0867 15.36 55.0867 16.48C55.0867 17.6 54.8334 18.5933 54.3267 19.46C53.8201 20.3267 53.1267 21 52.2467 21.48C51.3801 21.9467 50.4201 22.18 49.3667 22.18ZM49.3667 20.2C49.9534 20.2 50.5001 20.06 51.0067 19.78C51.5267 19.5 51.9467 19.08 52.2667 18.52C52.5867 17.96 52.7467 17.28 52.7467 16.48C52.7467 15.68 52.5934 15.0067 52.2867 14.46C51.9801 13.9 51.5734 13.48 51.0667 13.2C50.5601 12.92 50.0134 12.78 49.4267 12.78C48.8401 12.78 48.2934 12.92 47.7867 13.2C47.2934 13.48 46.9001 13.9 46.6067 14.46C46.3134 15.0067 46.1667 15.68 46.1667 16.48C46.1667 17.6667 46.4667 18.5867 47.0667 19.24C47.6801 19.88 48.4467 20.2 49.3667 20.2ZM61.9806 10.8C62.834 10.8 63.5873 10.9733 64.2406 11.32C64.9073 11.6533 65.4273 12.0733 65.8006 12.58V10.98H68.1006V22.18C68.1006 23.1933 67.8873 24.0933 67.4606 24.88C67.034 25.68 66.414 26.3067 65.6006 26.76C64.8006 27.2133 63.8406 27.44 62.7206 27.44C61.2273 27.44 59.9873 27.0867 59.0006 26.38C58.014 25.6867 57.454 24.74 57.3206 23.54H59.5806C59.754 24.1133 60.1206 24.5733 60.6806 24.92C61.254 25.28 61.934 25.46 62.7206 25.46C63.6406 25.46 64.3806 25.18 64.9406 24.62C65.514 24.06 65.8006 23.2467 65.8006 22.18V20.34C65.414 20.86 64.8873 21.3 64.2206 21.66C63.5673 22.0067 62.8206 22.18 61.9806 22.18C61.0206 22.18 60.1406 21.94 59.3406 21.46C58.554 20.9667 57.9273 20.2867 57.4606 19.42C57.0073 18.54 56.7806 17.5467 56.7806 16.44C56.7806 15.3333 57.0073 14.3533 57.4606 13.5C57.9273 12.6467 58.554 11.9867 59.3406 11.52C60.1406 11.04 61.0206 10.8 61.9806 10.8ZM65.8006 16.48C65.8006 15.72 65.6406 15.06 65.3206 14.5C65.014 13.94 64.6073 13.5133 64.1006 13.22C63.594 12.9267 63.0473 12.78 62.4606 12.78C61.874 12.78 61.3273 12.9267 60.8206 13.22C60.314 13.5 59.9006 13.92 59.5806 14.48C59.274 15.0267 59.1206 15.68 59.1206 16.44C59.1206 17.2 59.274 17.8667 59.5806 18.44C59.9006 19.0133 60.314 19.4533 60.8206 19.76C61.3406 20.0533 61.8873 20.2 62.4606 20.2C63.0473 20.2 63.594 20.0533 64.1006 19.76C64.6073 19.4667 65.014 19.04 65.3206 18.48C65.6406 17.9067 65.8006 17.24 65.8006 16.48ZM76.0753 22.18C75.0353 22.18 74.0953 21.9467 73.2553 21.48C72.4153 21 71.7553 20.3333 71.2753 19.48C70.7953 18.6133 70.5553 17.6133 70.5553 16.48C70.5553 15.36 70.802 14.3667 71.2953 13.5C71.7886 12.6333 72.462 11.9667 73.3153 11.5C74.1686 11.0333 75.122 10.8 76.1753 10.8C77.2286 10.8 78.182 11.0333 79.0353 11.5C79.8886 11.9667 80.562 12.6333 81.0553 13.5C81.5486 14.3667 81.7953 15.36 81.7953 16.48C81.7953 17.6 81.542 18.5933 81.0353 19.46C80.5286 20.3267 79.8353 21 78.9553 21.48C78.0886 21.9467 77.1286 22.18 76.0753 22.18ZM76.0753 20.2C76.662 20.2 77.2086 20.06 77.7153 19.78C78.2353 19.5 78.6553 19.08 78.9753 18.52C79.2953 17.96 79.4553 17.28 79.4553 16.48C79.4553 15.68 79.302 15.0067 78.9953 14.46C78.6886 13.9 78.282 13.48 77.7753 13.2C77.2686 12.92 76.722 12.78 76.1353 12.78C75.5486 12.78 75.002 12.92 74.4953 13.2C74.002 13.48 73.6086 13.9 73.3153 14.46C73.022 15.0067 72.8753 15.68 72.8753 16.48C72.8753 17.6667 73.1753 18.5867 73.7753 19.24C74.3886 19.88 75.1553 20.2 76.0753 20.2Z" fill="black"/>
</svg>

