<svg width="66" height="66" viewBox="0 0 66 66" fill="none" xmlns="http://www.w3.org/2000/svg">
<g id="iconspace_Bill Copy_25px">
<g id="bi:people" clip-path="url(#clip0_89_1621)">
<path id="Vector" d="M56.583 56.1377C56.583 56.1377 60.208 56.1377 60.208 52.5127C60.208 48.8877 56.583 38.0127 42.083 38.0127C27.583 38.0127 23.958 48.8877 23.958 52.5127C23.958 56.1377 27.583 56.1377 27.583 56.1377H56.583ZM27.6628 52.5127C27.636 52.509 27.6094 52.5042 27.583 52.4982C27.5866 51.5412 28.1884 48.7644 30.338 46.2632C32.339 43.9178 35.8553 41.6377 42.083 41.6377C48.3071 41.6377 51.8234 43.9214 53.828 46.2632C55.9776 48.7644 56.5758 51.5448 56.583 52.4982L56.554 52.5054C56.5372 52.5083 56.5202 52.5107 56.5033 52.5127H27.6628ZM42.083 30.7627C44.0058 30.7627 45.8499 29.9989 47.2095 28.6392C48.5692 27.2796 49.333 25.4355 49.333 23.5127C49.333 21.5899 48.5692 19.7458 47.2095 18.3862C45.8499 17.0265 44.0058 16.2627 42.083 16.2627C40.1602 16.2627 38.3161 17.0265 36.9565 18.3862C35.5968 19.7458 34.833 21.5899 34.833 23.5127C34.833 25.4355 35.5968 27.2796 36.9565 28.6392C38.3161 29.9989 40.1602 30.7627 42.083 30.7627ZM52.958 23.5127C52.958 24.9408 52.6767 26.355 52.1302 27.6744C51.5837 28.9938 50.7826 30.1926 49.7728 31.2025C48.763 32.2123 47.5641 33.0134 46.2447 33.5599C44.9253 34.1064 43.5111 34.3877 42.083 34.3877C40.6549 34.3877 39.2407 34.1064 37.9213 33.5599C36.6019 33.0134 35.4031 32.2123 34.3932 31.2025C33.3834 30.1926 32.5823 28.9938 32.0358 27.6744C31.4893 26.355 31.208 24.9408 31.208 23.5127C31.208 20.6285 32.3538 17.8624 34.3932 15.8229C36.4327 13.7835 39.1988 12.6377 42.083 12.6377C44.9672 12.6377 47.7333 13.7835 49.7728 15.8229C51.8123 17.8624 52.958 20.6285 52.958 23.5127ZM27.351 39.0277C25.9009 38.5711 24.4062 38.2709 22.8923 38.1323C22.0416 38.0514 21.1875 38.0115 20.333 38.0127C5.83301 38.0127 2.20801 48.8877 2.20801 52.5127C2.20801 54.9306 3.41513 56.1377 5.83301 56.1377H21.116C20.5786 55.006 20.3106 53.7653 20.333 52.5127C20.333 48.8514 21.6996 45.1104 24.2843 41.9857C25.1651 40.9199 26.191 39.9231 27.351 39.0277ZM20.043 41.6377C17.8976 44.8613 16.7386 48.6405 16.708 52.5127H5.83301C5.83301 51.5702 6.42751 48.7789 8.58801 46.2632C10.5636 43.9577 13.9965 41.7102 20.043 41.6413V41.6377ZM7.64551 25.3252C7.64551 22.441 8.79126 19.6749 10.8307 17.6354C12.8702 15.596 15.6363 14.4502 18.5205 14.4502C21.4047 14.4502 24.1708 15.596 26.2103 17.6354C28.2498 19.6749 29.3955 22.441 29.3955 25.3252C29.3955 28.2094 28.2498 30.9755 26.2103 33.015C24.1708 35.0544 21.4047 36.2002 18.5205 36.2002C15.6363 36.2002 12.8702 35.0544 10.8307 33.015C8.79126 30.9755 7.64551 28.2094 7.64551 25.3252ZM18.5205 18.0752C16.5977 18.0752 14.7536 18.839 13.394 20.1987C12.0343 21.5583 11.2705 23.4024 11.2705 25.3252C11.2705 27.248 12.0343 29.0921 13.394 30.4517C14.7536 31.8114 16.5977 32.5752 18.5205 32.5752C20.4433 32.5752 22.2874 31.8114 23.647 30.4517C25.0067 29.0921 25.7705 27.248 25.7705 25.3252C25.7705 23.4024 25.0067 21.5583 23.647 20.1987C22.2874 18.839 20.4433 18.0752 18.5205 18.0752Z" fill="#9747FF"/>
</g>
</g>
<defs>
<clipPath id="clip0_89_1621">
<rect width="29" height="29" fill="white" transform="matrix(2 0 0 2 2.20801 5.3877)"/>
</clipPath>
</defs>
</svg>
