<svg width="565" height="386" viewBox="0 0 565 386" fill="none" xmlns="http://www.w3.org/2000/svg">
<rect width="565" height="386" rx="50" fill="#EEEAF8"/>
<rect width="565" height="386" rx="50" fill="#EEEAF8"/>
<rect x="94" y="44" width="243" height="225" rx="20" fill="white"/>
<path d="M118.516 235.098C117.611 235.098 116.789 234.888 116.052 234.468C115.315 234.039 114.731 233.446 114.302 232.69C113.882 231.925 113.672 231.061 113.672 230.1C113.672 229.139 113.882 228.28 114.302 227.524C114.731 226.759 115.315 226.166 116.052 225.746C116.789 225.317 117.611 225.102 118.516 225.102C119.431 225.102 120.257 225.317 120.994 225.746C121.731 226.166 122.31 226.759 122.73 227.524C123.15 228.28 123.36 229.139 123.36 230.1C123.36 231.061 123.15 231.925 122.73 232.69C122.31 233.446 121.731 234.039 120.994 234.468C120.257 234.888 119.431 235.098 118.516 235.098ZM118.516 234.244C119.244 234.244 119.897 234.076 120.476 233.74C121.055 233.404 121.512 232.923 121.848 232.298C122.184 231.663 122.352 230.931 122.352 230.1C122.352 229.269 122.184 228.541 121.848 227.916C121.512 227.291 121.055 226.81 120.476 226.474C119.897 226.138 119.244 225.97 118.516 225.97C117.788 225.97 117.135 226.138 116.556 226.474C115.977 226.81 115.52 227.291 115.184 227.916C114.848 228.541 114.68 229.269 114.68 230.1C114.68 230.931 114.848 231.663 115.184 232.298C115.52 232.923 115.977 233.404 116.556 233.74C117.135 234.076 117.788 234.244 118.516 234.244ZM124.705 231.178C124.705 230.385 124.864 229.694 125.181 229.106C125.499 228.509 125.937 228.051 126.497 227.734C127.057 227.407 127.697 227.244 128.415 227.244C129.358 227.244 130.133 227.477 130.739 227.944C131.355 228.411 131.752 229.045 131.929 229.848H130.879C130.749 229.297 130.464 228.868 130.025 228.56C129.596 228.243 129.059 228.084 128.415 228.084C127.902 228.084 127.44 228.201 127.029 228.434C126.619 228.667 126.292 229.017 126.049 229.484C125.816 229.941 125.699 230.506 125.699 231.178C125.699 231.85 125.816 232.419 126.049 232.886C126.292 233.353 126.619 233.703 127.029 233.936C127.44 234.169 127.902 234.286 128.415 234.286C129.059 234.286 129.596 234.132 130.025 233.824C130.464 233.507 130.749 233.068 130.879 232.508H131.929C131.752 233.292 131.355 233.922 130.739 234.398C130.123 234.874 129.349 235.112 128.415 235.112C127.697 235.112 127.057 234.953 126.497 234.636C125.937 234.309 125.499 233.852 125.181 233.264C124.864 232.667 124.705 231.971 124.705 231.178ZM135.013 228.182V232.928C135.013 233.395 135.102 233.717 135.279 233.894C135.456 234.071 135.769 234.16 136.217 234.16H137.113V235H136.063C135.372 235 134.859 234.841 134.523 234.524C134.187 234.197 134.019 233.665 134.019 232.928V228.182H132.955V227.356H134.019V225.438H135.013V227.356H137.113V228.182H135.013ZM142.075 235.112C141.357 235.112 140.708 234.953 140.129 234.636C139.56 234.309 139.107 233.852 138.771 233.264C138.445 232.667 138.281 231.971 138.281 231.178C138.281 230.385 138.449 229.694 138.785 229.106C139.121 228.509 139.579 228.051 140.157 227.734C140.736 227.407 141.385 227.244 142.103 227.244C142.822 227.244 143.471 227.407 144.049 227.734C144.637 228.051 145.095 228.509 145.421 229.106C145.757 229.694 145.925 230.385 145.925 231.178C145.925 231.962 145.757 232.653 145.421 233.25C145.085 233.847 144.623 234.309 144.035 234.636C143.447 234.953 142.794 235.112 142.075 235.112ZM142.075 234.258C142.579 234.258 143.046 234.146 143.475 233.922C143.905 233.689 144.25 233.343 144.511 232.886C144.782 232.419 144.917 231.85 144.917 231.178C144.917 230.506 144.787 229.941 144.525 229.484C144.264 229.017 143.919 228.672 143.489 228.448C143.06 228.215 142.593 228.098 142.089 228.098C141.585 228.098 141.119 228.215 140.689 228.448C140.26 228.672 139.915 229.017 139.653 229.484C139.401 229.941 139.275 230.506 139.275 231.178C139.275 231.85 139.401 232.419 139.653 232.886C139.915 233.343 140.255 233.689 140.675 233.922C141.105 234.146 141.571 234.258 142.075 234.258ZM148.678 229.05C148.93 228.518 149.317 228.084 149.84 227.748C150.372 227.412 150.997 227.244 151.716 227.244C152.416 227.244 153.041 227.407 153.592 227.734C154.142 228.051 154.572 228.509 154.88 229.106C155.197 229.694 155.356 230.38 155.356 231.164C155.356 231.948 155.197 232.639 154.88 233.236C154.572 233.833 154.138 234.295 153.578 234.622C153.027 234.949 152.406 235.112 151.716 235.112C150.988 235.112 150.358 234.949 149.826 234.622C149.303 234.286 148.92 233.852 148.678 233.32V235H147.712V224.64H148.678V229.05ZM154.362 231.164C154.362 230.529 154.236 229.983 153.984 229.526C153.741 229.059 153.405 228.705 152.976 228.462C152.546 228.219 152.061 228.098 151.52 228.098C150.997 228.098 150.516 228.224 150.078 228.476C149.648 228.728 149.308 229.087 149.056 229.554C148.804 230.021 148.678 230.562 148.678 231.178C148.678 231.794 148.804 232.335 149.056 232.802C149.308 233.269 149.648 233.628 150.078 233.88C150.516 234.132 150.997 234.258 151.52 234.258C152.061 234.258 152.546 234.137 152.976 233.894C153.405 233.642 153.741 233.283 153.984 232.816C154.236 232.34 154.362 231.789 154.362 231.164ZM164.075 230.786C164.075 231.122 164.066 231.379 164.047 231.556H157.705C157.733 232.135 157.873 232.629 158.125 233.04C158.377 233.451 158.708 233.763 159.119 233.978C159.53 234.183 159.978 234.286 160.463 234.286C161.098 234.286 161.63 234.132 162.059 233.824C162.498 233.516 162.787 233.101 162.927 232.578H163.963C163.776 233.325 163.375 233.936 162.759 234.412C162.152 234.879 161.387 235.112 160.463 235.112C159.744 235.112 159.1 234.953 158.531 234.636C157.962 234.309 157.514 233.852 157.187 233.264C156.87 232.667 156.711 231.971 156.711 231.178C156.711 230.385 156.87 229.689 157.187 229.092C157.504 228.495 157.948 228.037 158.517 227.72C159.086 227.403 159.735 227.244 160.463 227.244C161.191 227.244 161.826 227.403 162.367 227.72C162.918 228.037 163.338 228.467 163.627 229.008C163.926 229.54 164.075 230.133 164.075 230.786ZM163.081 230.758C163.09 230.189 162.974 229.703 162.731 229.302C162.498 228.901 162.176 228.597 161.765 228.392C161.354 228.187 160.906 228.084 160.421 228.084C159.693 228.084 159.072 228.317 158.559 228.784C158.046 229.251 157.761 229.909 157.705 230.758H163.081ZM166.848 228.714C167.063 228.238 167.389 227.869 167.828 227.608C168.276 227.347 168.822 227.216 169.466 227.216V228.238H169.2C168.491 228.238 167.921 228.429 167.492 228.812C167.063 229.195 166.848 229.834 166.848 230.73V235H165.868V227.356H166.848V228.714ZM174.376 234.23C176.093 232.942 177.419 231.789 178.352 230.772C179.295 229.745 179.766 228.742 179.766 227.762C179.766 227.118 179.603 226.605 179.276 226.222C178.959 225.83 178.436 225.634 177.708 225.634C176.999 225.634 176.448 225.858 176.056 226.306C175.673 226.745 175.459 227.333 175.412 228.07H174.46C174.516 227.034 174.833 226.231 175.412 225.662C176 225.083 176.765 224.794 177.708 224.794C178.613 224.794 179.346 225.051 179.906 225.564C180.466 226.068 180.746 226.787 180.746 227.72C180.746 228.849 180.275 229.946 179.332 231.01C178.399 232.065 177.246 233.096 175.874 234.104H181.054V234.93H174.376V234.23ZM182.584 229.89C182.584 228.285 182.831 227.039 183.326 226.152C183.82 225.265 184.707 224.822 185.986 224.822C187.264 224.822 188.151 225.265 188.646 226.152C189.14 227.039 189.388 228.285 189.388 229.89C189.388 231.523 189.14 232.788 188.646 233.684C188.151 234.58 187.264 235.028 185.986 235.028C184.698 235.028 183.806 234.58 183.312 233.684C182.826 232.788 182.584 231.523 182.584 229.89ZM188.422 229.89C188.422 229.022 188.361 228.289 188.24 227.692C188.118 227.095 187.88 226.614 187.526 226.25C187.171 225.886 186.658 225.704 185.986 225.704C185.314 225.704 184.8 225.886 184.446 226.25C184.091 226.614 183.853 227.095 183.732 227.692C183.61 228.289 183.55 229.022 183.55 229.89C183.55 230.786 183.61 231.537 183.732 232.144C183.853 232.741 184.091 233.222 184.446 233.586C184.8 233.95 185.314 234.132 185.986 234.132C186.658 234.132 187.171 233.95 187.526 233.586C187.88 233.222 188.118 232.741 188.24 232.144C188.361 231.537 188.422 230.786 188.422 229.89ZM192.317 233.376L190.861 237.044H190.189L191.225 233.376H192.317ZM197.277 234.23C198.994 232.942 200.319 231.789 201.253 230.772C202.195 229.745 202.667 228.742 202.667 227.762C202.667 227.118 202.503 226.605 202.177 226.222C201.859 225.83 201.337 225.634 200.609 225.634C199.899 225.634 199.349 225.858 198.957 226.306C198.574 226.745 198.359 227.333 198.312 228.07H197.361C197.417 227.034 197.734 226.231 198.312 225.662C198.901 225.083 199.666 224.794 200.609 224.794C201.514 224.794 202.247 225.051 202.807 225.564C203.367 226.068 203.647 226.787 203.647 227.72C203.647 228.849 203.175 229.946 202.233 231.01C201.299 232.065 200.147 233.096 198.775 234.104H203.954V234.93H197.277V234.23ZM205.484 229.89C205.484 228.285 205.732 227.039 206.226 226.152C206.721 225.265 207.608 224.822 208.886 224.822C210.165 224.822 211.052 225.265 211.546 226.152C212.041 227.039 212.288 228.285 212.288 229.89C212.288 231.523 212.041 232.788 211.546 233.684C211.052 234.58 210.165 235.028 208.886 235.028C207.598 235.028 206.707 234.58 206.212 233.684C205.727 232.788 205.484 231.523 205.484 229.89ZM211.322 229.89C211.322 229.022 211.262 228.289 211.14 227.692C211.019 227.095 210.781 226.614 210.426 226.25C210.072 225.886 209.558 225.704 208.886 225.704C208.214 225.704 207.701 225.886 207.346 226.25C206.992 226.614 206.754 227.095 206.632 227.692C206.511 228.289 206.45 229.022 206.45 229.89C206.45 230.786 206.511 231.537 206.632 232.144C206.754 232.741 206.992 233.222 207.346 233.586C207.701 233.95 208.214 234.132 208.886 234.132C209.558 234.132 210.072 233.95 210.426 233.586C210.781 233.222 211.019 232.741 211.14 232.144C211.262 231.537 211.322 230.786 211.322 229.89ZM213.915 234.23C215.633 232.942 216.958 231.789 217.891 230.772C218.834 229.745 219.305 228.742 219.305 227.762C219.305 227.118 219.142 226.605 218.815 226.222C218.498 225.83 217.975 225.634 217.247 225.634C216.538 225.634 215.987 225.858 215.595 226.306C215.213 226.745 214.998 227.333 214.951 228.07H213.999C214.055 227.034 214.373 226.231 214.951 225.662C215.539 225.083 216.305 224.794 217.247 224.794C218.153 224.794 218.885 225.051 219.445 225.564C220.005 226.068 220.285 226.787 220.285 227.72C220.285 228.849 219.814 229.946 218.871 231.01C217.938 232.065 216.785 233.096 215.413 234.104H220.593V234.93H213.915V234.23ZM222.123 229.89C222.123 228.285 222.37 227.039 222.865 226.152C223.36 225.265 224.246 224.822 225.525 224.822C226.804 224.822 227.69 225.265 228.185 226.152C228.68 227.039 228.927 228.285 228.927 229.89C228.927 231.523 228.68 232.788 228.185 233.684C227.69 234.58 226.804 235.028 225.525 235.028C224.237 235.028 223.346 234.58 222.851 233.684C222.366 232.788 222.123 231.523 222.123 229.89ZM227.961 229.89C227.961 229.022 227.9 228.289 227.779 227.692C227.658 227.095 227.42 226.614 227.065 226.25C226.71 225.886 226.197 225.704 225.525 225.704C224.853 225.704 224.34 225.886 223.985 226.25C223.63 226.614 223.392 227.095 223.271 227.692C223.15 228.289 223.089 229.022 223.089 229.89C223.089 230.786 223.15 231.537 223.271 232.144C223.392 232.741 223.63 233.222 223.985 233.586C224.34 233.95 224.853 234.132 225.525 234.132C226.197 234.132 226.71 233.95 227.065 233.586C227.42 233.222 227.658 232.741 227.779 232.144C227.9 231.537 227.961 230.786 227.961 229.89Z" fill="black" fill-opacity="0.5"/>
<path d="M117.172 131.098C116.528 131.098 115.949 130.986 115.436 130.762C114.932 130.529 114.535 130.211 114.246 129.81C113.957 129.399 113.807 128.928 113.798 128.396H115.156C115.203 128.853 115.389 129.241 115.716 129.558C116.052 129.866 116.537 130.02 117.172 130.02C117.779 130.02 118.255 129.871 118.6 129.572C118.955 129.264 119.132 128.872 119.132 128.396C119.132 128.023 119.029 127.719 118.824 127.486C118.619 127.253 118.362 127.075 118.054 126.954C117.746 126.833 117.331 126.702 116.808 126.562C116.164 126.394 115.646 126.226 115.254 126.058C114.871 125.89 114.54 125.629 114.26 125.274C113.989 124.91 113.854 124.425 113.854 123.818C113.854 123.286 113.989 122.815 114.26 122.404C114.531 121.993 114.909 121.676 115.394 121.452C115.889 121.228 116.453 121.116 117.088 121.116C118.003 121.116 118.749 121.345 119.328 121.802C119.916 122.259 120.247 122.866 120.322 123.622H118.922C118.875 123.249 118.679 122.922 118.334 122.642C117.989 122.353 117.531 122.208 116.962 122.208C116.43 122.208 115.996 122.348 115.66 122.628C115.324 122.899 115.156 123.281 115.156 123.776C115.156 124.131 115.254 124.42 115.45 124.644C115.655 124.868 115.903 125.041 116.192 125.162C116.491 125.274 116.906 125.405 117.438 125.554C118.082 125.731 118.6 125.909 118.992 126.086C119.384 126.254 119.72 126.52 120 126.884C120.28 127.239 120.42 127.724 120.42 128.34C120.42 128.816 120.294 129.264 120.042 129.684C119.79 130.104 119.417 130.445 118.922 130.706C118.427 130.967 117.844 131.098 117.172 131.098ZM122.953 122.082C122.71 122.082 122.505 121.998 122.337 121.83C122.169 121.662 122.085 121.457 122.085 121.214C122.085 120.971 122.169 120.766 122.337 120.598C122.505 120.43 122.71 120.346 122.953 120.346C123.186 120.346 123.382 120.43 123.541 120.598C123.709 120.766 123.793 120.971 123.793 121.214C123.793 121.457 123.709 121.662 123.541 121.83C123.382 121.998 123.186 122.082 122.953 122.082ZM123.569 123.328V131H122.295V123.328H123.569ZM128.904 123.202C129.567 123.202 130.145 123.347 130.64 123.636C131.144 123.925 131.517 124.289 131.76 124.728V123.328H133.048V131.168C133.048 131.868 132.899 132.489 132.6 133.03C132.301 133.581 131.872 134.01 131.312 134.318C130.761 134.626 130.117 134.78 129.38 134.78C128.372 134.78 127.532 134.542 126.86 134.066C126.188 133.59 125.791 132.941 125.67 132.12H126.93C127.07 132.587 127.359 132.96 127.798 133.24C128.237 133.529 128.764 133.674 129.38 133.674C130.08 133.674 130.649 133.455 131.088 133.016C131.536 132.577 131.76 131.961 131.76 131.168V129.558C131.508 130.006 131.135 130.379 130.64 130.678C130.145 130.977 129.567 131.126 128.904 131.126C128.223 131.126 127.602 130.958 127.042 130.622C126.491 130.286 126.057 129.815 125.74 129.208C125.423 128.601 125.264 127.911 125.264 127.136C125.264 126.352 125.423 125.666 125.74 125.078C126.057 124.481 126.491 124.019 127.042 123.692C127.602 123.365 128.223 123.202 128.904 123.202ZM131.76 127.15C131.76 126.571 131.643 126.067 131.41 125.638C131.177 125.209 130.859 124.882 130.458 124.658C130.066 124.425 129.632 124.308 129.156 124.308C128.68 124.308 128.246 124.42 127.854 124.644C127.462 124.868 127.149 125.195 126.916 125.624C126.683 126.053 126.566 126.557 126.566 127.136C126.566 127.724 126.683 128.237 126.916 128.676C127.149 129.105 127.462 129.437 127.854 129.67C128.246 129.894 128.68 130.006 129.156 130.006C129.632 130.006 130.066 129.894 130.458 129.67C130.859 129.437 131.177 129.105 131.41 128.676C131.643 128.237 131.76 127.729 131.76 127.15ZM139.009 123.188C139.588 123.188 140.11 123.314 140.577 123.566C141.044 123.809 141.408 124.177 141.669 124.672C141.94 125.167 142.075 125.769 142.075 126.478V131H140.815V126.66C140.815 125.895 140.624 125.311 140.241 124.91C139.858 124.499 139.336 124.294 138.673 124.294C138.001 124.294 137.464 124.504 137.063 124.924C136.671 125.344 136.475 125.955 136.475 126.758V131H135.201V120.64H136.475V124.42C136.727 124.028 137.072 123.725 137.511 123.51C137.959 123.295 138.458 123.188 139.009 123.188ZM150.745 129.824L153.125 123.328H154.483L151.473 131H149.989L146.979 123.328H148.351L150.745 129.824ZM156.394 122.082C156.152 122.082 155.946 121.998 155.778 121.83C155.61 121.662 155.526 121.457 155.526 121.214C155.526 120.971 155.61 120.766 155.778 120.598C155.946 120.43 156.152 120.346 156.394 120.346C156.628 120.346 156.824 120.43 156.982 120.598C157.15 120.766 157.234 120.971 157.234 121.214C157.234 121.457 157.15 121.662 156.982 121.83C156.824 121.998 156.628 122.082 156.394 122.082ZM157.01 123.328V131H155.736V123.328H157.01ZM166.182 126.87C166.182 127.113 166.168 127.369 166.14 127.64H160.008C160.054 128.396 160.311 128.989 160.778 129.418C161.254 129.838 161.828 130.048 162.5 130.048C163.05 130.048 163.508 129.922 163.872 129.67C164.245 129.409 164.506 129.063 164.656 128.634H166.028C165.822 129.371 165.412 129.973 164.796 130.44C164.18 130.897 163.414 131.126 162.5 131.126C161.772 131.126 161.118 130.963 160.54 130.636C159.97 130.309 159.522 129.847 159.196 129.25C158.869 128.643 158.706 127.943 158.706 127.15C158.706 126.357 158.864 125.661 159.182 125.064C159.499 124.467 159.942 124.009 160.512 123.692C161.09 123.365 161.753 123.202 162.5 123.202C163.228 123.202 163.872 123.361 164.432 123.678C164.992 123.995 165.421 124.434 165.72 124.994C166.028 125.545 166.182 126.17 166.182 126.87ZM164.866 126.604C164.866 126.119 164.758 125.703 164.544 125.358C164.329 125.003 164.035 124.737 163.662 124.56C163.298 124.373 162.892 124.28 162.444 124.28C161.8 124.28 161.249 124.485 160.792 124.896C160.344 125.307 160.087 125.876 160.022 126.604H164.866ZM178.083 123.328L175.689 131H174.373L172.525 124.91L170.677 131H169.361L166.953 123.328H168.255L170.019 129.768L171.923 123.328H173.225L175.087 129.782L176.823 123.328H178.083ZM182.604 127.136C182.604 126.352 182.763 125.666 183.08 125.078C183.397 124.481 183.831 124.019 184.382 123.692C184.942 123.365 185.563 123.202 186.244 123.202C186.916 123.202 187.499 123.347 187.994 123.636C188.489 123.925 188.857 124.289 189.1 124.728V123.328H190.388V131H189.1V129.572C188.848 130.02 188.47 130.393 187.966 130.692C187.471 130.981 186.893 131.126 186.23 131.126C185.549 131.126 184.933 130.958 184.382 130.622C183.831 130.286 183.397 129.815 183.08 129.208C182.763 128.601 182.604 127.911 182.604 127.136ZM189.1 127.15C189.1 126.571 188.983 126.067 188.75 125.638C188.517 125.209 188.199 124.882 187.798 124.658C187.406 124.425 186.972 124.308 186.496 124.308C186.02 124.308 185.586 124.42 185.194 124.644C184.802 124.868 184.489 125.195 184.256 125.624C184.023 126.053 183.906 126.557 183.906 127.136C183.906 127.724 184.023 128.237 184.256 128.676C184.489 129.105 184.802 129.437 185.194 129.67C185.586 129.894 186.02 130.006 186.496 130.006C186.972 130.006 187.406 129.894 187.798 129.67C188.199 129.437 188.517 129.105 188.75 128.676C188.983 128.237 189.1 127.729 189.1 127.15ZM201.767 123.188C202.364 123.188 202.896 123.314 203.363 123.566C203.83 123.809 204.198 124.177 204.469 124.672C204.74 125.167 204.875 125.769 204.875 126.478V131H203.615V126.66C203.615 125.895 203.424 125.311 203.041 124.91C202.668 124.499 202.159 124.294 201.515 124.294C200.852 124.294 200.325 124.509 199.933 124.938C199.541 125.358 199.345 125.969 199.345 126.772V131H198.085V126.66C198.085 125.895 197.894 125.311 197.511 124.91C197.138 124.499 196.629 124.294 195.985 124.294C195.322 124.294 194.795 124.509 194.403 124.938C194.011 125.358 193.815 125.969 193.815 126.772V131H192.541V123.328H193.815V124.434C194.067 124.033 194.403 123.725 194.823 123.51C195.252 123.295 195.724 123.188 196.237 123.188C196.881 123.188 197.45 123.333 197.945 123.622C198.44 123.911 198.808 124.336 199.051 124.896C199.266 124.355 199.62 123.935 200.115 123.636C200.61 123.337 201.16 123.188 201.767 123.188ZM214.505 123.188C215.084 123.188 215.606 123.314 216.073 123.566C216.54 123.809 216.904 124.177 217.165 124.672C217.436 125.167 217.571 125.769 217.571 126.478V131H216.311V126.66C216.311 125.895 216.12 125.311 215.737 124.91C215.354 124.499 214.832 124.294 214.169 124.294C213.497 124.294 212.96 124.504 212.559 124.924C212.167 125.344 211.971 125.955 211.971 126.758V131H210.697V120.64H211.971V124.42C212.223 124.028 212.568 123.725 213.007 123.51C213.455 123.295 213.954 123.188 214.505 123.188ZM220.31 122.082C220.068 122.082 219.862 121.998 219.694 121.83C219.526 121.662 219.442 121.457 219.442 121.214C219.442 120.971 219.526 120.766 219.694 120.598C219.862 120.43 220.068 120.346 220.31 120.346C220.544 120.346 220.74 120.43 220.898 120.598C221.066 120.766 221.15 120.971 221.15 121.214C221.15 121.457 221.066 121.662 220.898 121.83C220.74 121.998 220.544 122.082 220.31 122.082ZM220.926 123.328V131H219.652V123.328H220.926ZM226.262 123.202C226.924 123.202 227.503 123.347 227.998 123.636C228.502 123.925 228.875 124.289 229.118 124.728V123.328H230.406V131.168C230.406 131.868 230.256 132.489 229.958 133.03C229.659 133.581 229.23 134.01 228.67 134.318C228.119 134.626 227.475 134.78 226.738 134.78C225.73 134.78 224.89 134.542 224.218 134.066C223.546 133.59 223.149 132.941 223.028 132.12H224.288C224.428 132.587 224.717 132.96 225.156 133.24C225.594 133.529 226.122 133.674 226.738 133.674C227.438 133.674 228.007 133.455 228.446 133.016C228.894 132.577 229.118 131.961 229.118 131.168V129.558C228.866 130.006 228.492 130.379 227.998 130.678C227.503 130.977 226.924 131.126 226.262 131.126C225.58 131.126 224.96 130.958 224.4 130.622C223.849 130.286 223.415 129.815 223.098 129.208C222.78 128.601 222.622 127.911 222.622 127.136C222.622 126.352 222.78 125.666 223.098 125.078C223.415 124.481 223.849 124.019 224.4 123.692C224.96 123.365 225.58 123.202 226.262 123.202ZM229.118 127.15C229.118 126.571 229.001 126.067 228.768 125.638C228.534 125.209 228.217 124.882 227.816 124.658C227.424 124.425 226.99 124.308 226.514 124.308C226.038 124.308 225.604 124.42 225.212 124.644C224.82 124.868 224.507 125.195 224.274 125.624C224.04 126.053 223.924 126.557 223.924 127.136C223.924 127.724 224.04 128.237 224.274 128.676C224.507 129.105 224.82 129.437 225.212 129.67C225.604 129.894 226.038 130.006 226.514 130.006C226.99 130.006 227.424 129.894 227.816 129.67C228.217 129.437 228.534 129.105 228.768 128.676C229.001 128.237 229.118 127.729 229.118 127.15ZM236.366 123.188C236.945 123.188 237.468 123.314 237.934 123.566C238.401 123.809 238.765 124.177 239.026 124.672C239.297 125.167 239.432 125.769 239.432 126.478V131H238.172V126.66C238.172 125.895 237.981 125.311 237.598 124.91C237.216 124.499 236.693 124.294 236.03 124.294C235.358 124.294 234.822 124.504 234.42 124.924C234.028 125.344 233.832 125.955 233.832 126.758V131H232.558V120.64H233.832V124.42C234.084 124.028 234.43 123.725 234.868 123.51C235.316 123.295 235.816 123.188 236.366 123.188ZM248.984 123.188C249.917 123.188 250.673 123.473 251.252 124.042C251.831 124.602 252.12 125.414 252.12 126.478V131H250.86V126.66C250.86 125.895 250.669 125.311 250.286 124.91C249.903 124.499 249.381 124.294 248.718 124.294C248.046 124.294 247.509 124.504 247.108 124.924C246.716 125.344 246.52 125.955 246.52 126.758V131H245.246V123.328H246.52V124.42C246.772 124.028 247.113 123.725 247.542 123.51C247.981 123.295 248.461 123.188 248.984 123.188ZM261.201 126.87C261.201 127.113 261.187 127.369 261.159 127.64H255.027C255.074 128.396 255.33 128.989 255.797 129.418C256.273 129.838 256.847 130.048 257.519 130.048C258.07 130.048 258.527 129.922 258.891 129.67C259.264 129.409 259.526 129.063 259.675 128.634H261.047C260.842 129.371 260.431 129.973 259.815 130.44C259.199 130.897 258.434 131.126 257.519 131.126C256.791 131.126 256.138 130.963 255.559 130.636C254.99 130.309 254.542 129.847 254.215 129.25C253.888 128.643 253.725 127.943 253.725 127.15C253.725 126.357 253.884 125.661 254.201 125.064C254.518 124.467 254.962 124.009 255.531 123.692C256.11 123.365 256.772 123.202 257.519 123.202C258.247 123.202 258.891 123.361 259.451 123.678C260.011 123.995 260.44 124.434 260.739 124.994C261.047 125.545 261.201 126.17 261.201 126.87ZM259.885 126.604C259.885 126.119 259.778 125.703 259.563 125.358C259.348 125.003 259.054 124.737 258.681 124.56C258.317 124.373 257.911 124.28 257.463 124.28C256.819 124.28 256.268 124.485 255.811 124.896C255.363 125.307 255.106 125.876 255.041 126.604H259.885ZM262.407 127.136C262.407 126.352 262.565 125.666 262.883 125.078C263.2 124.481 263.634 124.019 264.185 123.692C264.745 123.365 265.365 123.202 266.047 123.202C266.719 123.202 267.302 123.347 267.797 123.636C268.291 123.925 268.66 124.289 268.903 124.728V123.328H270.191V131H268.903V129.572C268.651 130.02 268.273 130.393 267.769 130.692C267.274 130.981 266.695 131.126 266.033 131.126C265.351 131.126 264.735 130.958 264.185 130.622C263.634 130.286 263.2 129.815 262.883 129.208C262.565 128.601 262.407 127.911 262.407 127.136ZM268.903 127.15C268.903 126.571 268.786 126.067 268.553 125.638C268.319 125.209 268.002 124.882 267.601 124.658C267.209 124.425 266.775 124.308 266.299 124.308C265.823 124.308 265.389 124.42 264.997 124.644C264.605 124.868 264.292 125.195 264.059 125.624C263.825 126.053 263.709 126.557 263.709 127.136C263.709 127.724 263.825 128.237 264.059 128.676C264.292 129.105 264.605 129.437 264.997 129.67C265.389 129.894 265.823 130.006 266.299 130.006C266.775 130.006 267.209 129.894 267.601 129.67C268.002 129.437 268.319 129.105 268.553 128.676C268.786 128.237 268.903 127.729 268.903 127.15ZM273.898 124.378V128.9C273.898 129.273 273.977 129.539 274.136 129.698C274.294 129.847 274.57 129.922 274.962 129.922H275.9V131H274.752C274.042 131 273.51 130.837 273.156 130.51C272.801 130.183 272.624 129.647 272.624 128.9V124.378H271.63V123.328H272.624V121.396H273.898V123.328H275.9V124.378H273.898ZM284.984 123.188C285.562 123.188 286.085 123.314 286.552 123.566C287.018 123.809 287.382 124.177 287.644 124.672C287.914 125.167 288.05 125.769 288.05 126.478V131H286.79V126.66C286.79 125.895 286.598 125.311 286.216 124.91C285.833 124.499 285.31 124.294 284.648 124.294C283.976 124.294 283.439 124.504 283.038 124.924C282.646 125.344 282.45 125.955 282.45 126.758V131H281.176V120.64H282.45V124.42C282.702 124.028 283.047 123.725 283.486 123.51C283.934 123.295 284.433 123.188 284.984 123.188ZM289.655 127.136C289.655 126.352 289.813 125.666 290.131 125.078C290.448 124.481 290.882 124.019 291.433 123.692C291.993 123.365 292.613 123.202 293.295 123.202C293.967 123.202 294.55 123.347 295.045 123.636C295.539 123.925 295.908 124.289 296.151 124.728V123.328H297.439V131H296.151V129.572C295.899 130.02 295.521 130.393 295.017 130.692C294.522 130.981 293.943 131.126 293.281 131.126C292.599 131.126 291.983 130.958 291.433 130.622C290.882 130.286 290.448 129.815 290.131 129.208C289.813 128.601 289.655 127.911 289.655 127.136ZM296.151 127.15C296.151 126.571 296.034 126.067 295.801 125.638C295.567 125.209 295.25 124.882 294.849 124.658C294.457 124.425 294.023 124.308 293.547 124.308C293.071 124.308 292.637 124.42 292.245 124.644C291.853 124.868 291.54 125.195 291.307 125.624C291.073 126.053 290.957 126.557 290.957 127.136C290.957 127.724 291.073 128.237 291.307 128.676C291.54 129.105 291.853 129.437 292.245 129.67C292.637 129.894 293.071 130.006 293.547 130.006C294.023 130.006 294.457 129.894 294.849 129.67C295.25 129.437 295.567 129.105 295.801 128.676C296.034 128.237 296.151 127.729 296.151 127.15ZM300.866 120.64V131H299.592V120.64H300.866ZM306.159 124.378H304.549V131H303.275V124.378H302.281V123.328H303.275V122.782C303.275 121.923 303.494 121.298 303.933 120.906C304.381 120.505 305.095 120.304 306.075 120.304V121.368C305.515 121.368 305.118 121.48 304.885 121.704C304.661 121.919 304.549 122.278 304.549 122.782V123.328H306.159V124.378ZM115.632 145.378V149.9C115.632 150.273 115.711 150.539 115.87 150.698C116.029 150.847 116.304 150.922 116.696 150.922H117.634V152H116.486C115.777 152 115.245 151.837 114.89 151.51C114.535 151.183 114.358 150.647 114.358 149.9V145.378H113.364V144.328H114.358V142.396H115.632V144.328H117.634V145.378H115.632ZM122.524 152.126C121.805 152.126 121.152 151.963 120.564 151.636C119.985 151.309 119.528 150.847 119.192 150.25C118.865 149.643 118.702 148.943 118.702 148.15C118.702 147.366 118.87 146.675 119.206 146.078C119.551 145.471 120.018 145.009 120.606 144.692C121.194 144.365 121.852 144.202 122.58 144.202C123.308 144.202 123.966 144.365 124.554 144.692C125.142 145.009 125.604 145.467 125.94 146.064C126.285 146.661 126.458 147.357 126.458 148.15C126.458 148.943 126.28 149.643 125.926 150.25C125.58 150.847 125.109 151.309 124.512 151.636C123.914 151.963 123.252 152.126 122.524 152.126ZM122.524 151.006C122.981 151.006 123.41 150.899 123.812 150.684C124.213 150.469 124.535 150.147 124.778 149.718C125.03 149.289 125.156 148.766 125.156 148.15C125.156 147.534 125.034 147.011 124.792 146.582C124.549 146.153 124.232 145.835 123.84 145.63C123.448 145.415 123.023 145.308 122.566 145.308C122.099 145.308 121.67 145.415 121.278 145.63C120.895 145.835 120.587 146.153 120.354 146.582C120.12 147.011 120.004 147.534 120.004 148.15C120.004 148.775 120.116 149.303 120.34 149.732C120.573 150.161 120.881 150.483 121.264 150.698C121.646 150.903 122.066 151.006 122.524 151.006ZM142.085 144.328L139.691 152H138.375L136.527 145.91L134.679 152H133.363L130.955 144.328H132.257L134.021 150.768L135.925 144.328H137.227L139.089 150.782L140.825 144.328H142.085ZM147.157 144.188C147.736 144.188 148.259 144.314 148.725 144.566C149.192 144.809 149.556 145.177 149.817 145.672C150.088 146.167 150.223 146.769 150.223 147.478V152H148.963V147.66C148.963 146.895 148.772 146.311 148.389 145.91C148.007 145.499 147.484 145.294 146.821 145.294C146.149 145.294 145.613 145.504 145.211 145.924C144.819 146.344 144.623 146.955 144.623 147.758V152H143.349V141.64H144.623V145.42C144.875 145.028 145.221 144.725 145.659 144.51C146.107 144.295 146.607 144.188 147.157 144.188ZM151.829 148.136C151.829 147.352 151.987 146.666 152.305 146.078C152.622 145.481 153.056 145.019 153.607 144.692C154.167 144.365 154.787 144.202 155.469 144.202C156.141 144.202 156.724 144.347 157.219 144.636C157.713 144.925 158.082 145.289 158.325 145.728V144.328H159.613V152H158.325V150.572C158.073 151.02 157.695 151.393 157.191 151.692C156.696 151.981 156.117 152.126 155.455 152.126C154.773 152.126 154.157 151.958 153.607 151.622C153.056 151.286 152.622 150.815 152.305 150.208C151.987 149.601 151.829 148.911 151.829 148.136ZM158.325 148.15C158.325 147.571 158.208 147.067 157.975 146.638C157.741 146.209 157.424 145.882 157.023 145.658C156.631 145.425 156.197 145.308 155.721 145.308C155.245 145.308 154.811 145.42 154.419 145.644C154.027 145.868 153.714 146.195 153.481 146.624C153.247 147.053 153.131 147.557 153.131 148.136C153.131 148.724 153.247 149.237 153.481 149.676C153.714 150.105 154.027 150.437 154.419 150.67C154.811 150.894 155.245 151.006 155.721 151.006C156.197 151.006 156.631 150.894 157.023 150.67C157.424 150.437 157.741 150.105 157.975 149.676C158.208 149.237 158.325 148.729 158.325 148.15ZM163.32 145.378V149.9C163.32 150.273 163.399 150.539 163.558 150.698C163.716 150.847 163.992 150.922 164.383 150.922H165.322V152H164.174C163.464 152 162.932 151.837 162.578 151.51C162.223 151.183 162.046 150.647 162.046 149.9V145.378H161.052V144.328H162.046V142.396H163.32V144.328H165.322V145.378H163.32ZM167.271 152.084C167.028 152.084 166.823 152 166.655 151.832C166.487 151.664 166.403 151.459 166.403 151.216C166.403 150.973 166.487 150.768 166.655 150.6C166.823 150.432 167.028 150.348 167.271 150.348C167.504 150.348 167.7 150.432 167.859 150.6C168.027 150.768 168.111 150.973 168.111 151.216C168.111 151.459 168.027 151.664 167.859 151.832C167.7 152 167.504 152.084 167.271 152.084ZM176.631 152.098C175.987 152.098 175.408 151.986 174.895 151.762C174.391 151.529 173.994 151.211 173.705 150.81C173.416 150.399 173.266 149.928 173.257 149.396H174.615C174.662 149.853 174.848 150.241 175.175 150.558C175.511 150.866 175.996 151.02 176.631 151.02C177.238 151.02 177.714 150.871 178.059 150.572C178.414 150.264 178.591 149.872 178.591 149.396C178.591 149.023 178.488 148.719 178.283 148.486C178.078 148.253 177.821 148.075 177.513 147.954C177.205 147.833 176.79 147.702 176.267 147.562C175.623 147.394 175.105 147.226 174.713 147.058C174.33 146.89 173.999 146.629 173.719 146.274C173.448 145.91 173.313 145.425 173.313 144.818C173.313 144.286 173.448 143.815 173.719 143.404C173.99 142.993 174.368 142.676 174.853 142.452C175.348 142.228 175.912 142.116 176.547 142.116C177.462 142.116 178.208 142.345 178.787 142.802C179.375 143.259 179.706 143.866 179.781 144.622H178.381C178.334 144.249 178.138 143.922 177.793 143.642C177.448 143.353 176.99 143.208 176.421 143.208C175.889 143.208 175.455 143.348 175.119 143.628C174.783 143.899 174.615 144.281 174.615 144.776C174.615 145.131 174.713 145.42 174.909 145.644C175.114 145.868 175.362 146.041 175.651 146.162C175.95 146.274 176.365 146.405 176.897 146.554C177.541 146.731 178.059 146.909 178.451 147.086C178.843 147.254 179.179 147.52 179.459 147.884C179.739 148.239 179.879 148.724 179.879 149.34C179.879 149.816 179.753 150.264 179.501 150.684C179.249 151.104 178.876 151.445 178.381 151.706C177.886 151.967 177.303 152.098 176.631 152.098ZM188.754 147.87C188.754 148.113 188.74 148.369 188.712 148.64H182.58C182.626 149.396 182.883 149.989 183.35 150.418C183.826 150.838 184.4 151.048 185.072 151.048C185.622 151.048 186.08 150.922 186.444 150.67C186.817 150.409 187.078 150.063 187.228 149.634H188.6C188.394 150.371 187.984 150.973 187.368 151.44C186.752 151.897 185.986 152.126 185.072 152.126C184.344 152.126 183.69 151.963 183.112 151.636C182.542 151.309 182.094 150.847 181.768 150.25C181.441 149.643 181.278 148.943 181.278 148.15C181.278 147.357 181.436 146.661 181.754 146.064C182.071 145.467 182.514 145.009 183.084 144.692C183.662 144.365 184.325 144.202 185.072 144.202C185.8 144.202 186.444 144.361 187.004 144.678C187.564 144.995 187.993 145.434 188.292 145.994C188.6 146.545 188.754 147.17 188.754 147.87ZM187.438 147.604C187.438 147.119 187.33 146.703 187.116 146.358C186.901 146.003 186.607 145.737 186.234 145.56C185.87 145.373 185.464 145.28 185.016 145.28C184.372 145.28 183.821 145.485 183.364 145.896C182.916 146.307 182.659 146.876 182.594 147.604H187.438ZM194.173 144.188C195.107 144.188 195.863 144.473 196.441 145.042C197.02 145.602 197.309 146.414 197.309 147.478V152H196.049V147.66C196.049 146.895 195.858 146.311 195.475 145.91C195.093 145.499 194.57 145.294 193.907 145.294C193.235 145.294 192.699 145.504 192.297 145.924C191.905 146.344 191.709 146.955 191.709 147.758V152H190.435V144.328H191.709V145.42C191.961 145.028 192.302 144.725 192.731 144.51C193.17 144.295 193.651 144.188 194.173 144.188ZM200.945 145.378V149.9C200.945 150.273 201.024 150.539 201.183 150.698C201.341 150.847 201.617 150.922 202.008 150.922H202.947V152H201.799C201.089 152 200.557 151.837 200.203 151.51C199.848 151.183 199.671 150.647 199.671 149.9V145.378H198.677V144.328H199.671V142.396H200.945V144.328H202.947V145.378H200.945ZM209.497 141.64V152H208.223V141.64H209.497ZM211.192 148.136C211.192 147.352 211.351 146.666 211.668 146.078C211.985 145.481 212.419 145.019 212.97 144.692C213.53 144.365 214.151 144.202 214.832 144.202C215.504 144.202 216.087 144.347 216.582 144.636C217.077 144.925 217.445 145.289 217.688 145.728V144.328H218.976V152H217.688V150.572C217.436 151.02 217.058 151.393 216.554 151.692C216.059 151.981 215.481 152.126 214.818 152.126C214.137 152.126 213.521 151.958 212.97 151.622C212.419 151.286 211.985 150.815 211.668 150.208C211.351 149.601 211.192 148.911 211.192 148.136ZM217.688 148.15C217.688 147.571 217.571 147.067 217.338 146.638C217.105 146.209 216.787 145.882 216.386 145.658C215.994 145.425 215.56 145.308 215.084 145.308C214.608 145.308 214.174 145.42 213.782 145.644C213.39 145.868 213.077 146.195 212.844 146.624C212.611 147.053 212.494 147.557 212.494 148.136C212.494 148.724 212.611 149.237 212.844 149.676C213.077 150.105 213.39 150.437 213.782 150.67C214.174 150.894 214.608 151.006 215.084 151.006C215.56 151.006 215.994 150.894 216.386 150.67C216.787 150.437 217.105 150.105 217.338 149.676C217.571 149.237 217.688 148.729 217.688 148.15ZM222.683 145.378V149.9C222.683 150.273 222.762 150.539 222.921 150.698C223.079 150.847 223.355 150.922 223.747 150.922H224.685V152H223.537C222.827 152 222.295 151.837 221.941 151.51C221.586 151.183 221.409 150.647 221.409 149.9V145.378H220.415V144.328H221.409V142.396H222.683V144.328H224.685V145.378H222.683ZM233.228 147.87C233.228 148.113 233.214 148.369 233.186 148.64H227.054C227.101 149.396 227.358 149.989 227.824 150.418C228.3 150.838 228.874 151.048 229.546 151.048C230.097 151.048 230.554 150.922 230.918 150.67C231.292 150.409 231.553 150.063 231.702 149.634H233.074C232.869 150.371 232.458 150.973 231.842 151.44C231.226 151.897 230.461 152.126 229.546 152.126C228.818 152.126 228.165 151.963 227.586 151.636C227.017 151.309 226.569 150.847 226.242 150.25C225.916 149.643 225.752 148.943 225.752 148.15C225.752 147.357 225.911 146.661 226.228 146.064C226.546 145.467 226.989 145.009 227.558 144.692C228.137 144.365 228.8 144.202 229.546 144.202C230.274 144.202 230.918 144.361 231.478 144.678C232.038 144.995 232.468 145.434 232.766 145.994C233.074 146.545 233.228 147.17 233.228 147.87ZM231.912 147.604C231.912 147.119 231.805 146.703 231.59 146.358C231.376 146.003 231.082 145.737 230.708 145.56C230.344 145.373 229.938 145.28 229.49 145.28C228.846 145.28 228.296 145.485 227.838 145.896C227.39 146.307 227.134 146.876 227.068 147.604H231.912ZM242.45 144.188C243.029 144.188 243.552 144.314 244.018 144.566C244.485 144.809 244.849 145.177 245.11 145.672C245.381 146.167 245.516 146.769 245.516 147.478V152H244.256V147.66C244.256 146.895 244.065 146.311 243.682 145.91C243.3 145.499 242.777 145.294 242.114 145.294C241.442 145.294 240.906 145.504 240.504 145.924C240.112 146.344 239.916 146.955 239.916 147.758V152H238.642V141.64H239.916V145.42C240.168 145.028 240.514 144.725 240.952 144.51C241.4 144.295 241.9 144.188 242.45 144.188ZM254.598 147.87C254.598 148.113 254.584 148.369 254.556 148.64H248.424C248.47 149.396 248.727 149.989 249.194 150.418C249.67 150.838 250.244 151.048 250.916 151.048C251.466 151.048 251.924 150.922 252.288 150.67C252.661 150.409 252.922 150.063 253.072 149.634H254.444C254.238 150.371 253.828 150.973 253.212 151.44C252.596 151.897 251.83 152.126 250.916 152.126C250.188 152.126 249.534 151.963 248.956 151.636C248.386 151.309 247.938 150.847 247.612 150.25C247.285 149.643 247.122 148.943 247.122 148.15C247.122 147.357 247.28 146.661 247.598 146.064C247.915 145.467 248.358 145.009 248.928 144.692C249.506 144.365 250.169 144.202 250.916 144.202C251.644 144.202 252.288 144.361 252.848 144.678C253.408 144.995 253.837 145.434 254.136 145.994C254.444 146.545 254.598 147.17 254.598 147.87ZM253.282 147.604C253.282 147.119 253.174 146.703 252.96 146.358C252.745 146.003 252.451 145.737 252.078 145.56C251.714 145.373 251.308 145.28 250.86 145.28C250.216 145.28 249.665 145.485 249.208 145.896C248.76 146.307 248.503 146.876 248.438 147.604H253.282ZM257.553 141.64V152H256.279V141.64H257.553ZM259.248 148.136C259.248 147.352 259.407 146.666 259.724 146.078C260.042 145.481 260.476 145.019 261.026 144.692C261.586 144.365 262.212 144.202 262.902 144.202C263.5 144.202 264.055 144.342 264.568 144.622C265.082 144.893 265.474 145.252 265.744 145.7V141.64H267.032V152H265.744V150.558C265.492 151.015 265.119 151.393 264.624 151.692C264.13 151.981 263.551 152.126 262.888 152.126C262.207 152.126 261.586 151.958 261.026 151.622C260.476 151.286 260.042 150.815 259.724 150.208C259.407 149.601 259.248 148.911 259.248 148.136ZM265.744 148.15C265.744 147.571 265.628 147.067 265.394 146.638C265.161 146.209 264.844 145.882 264.442 145.658C264.05 145.425 263.616 145.308 263.14 145.308C262.664 145.308 262.23 145.42 261.838 145.644C261.446 145.868 261.134 146.195 260.9 146.624C260.667 147.053 260.55 147.557 260.55 148.136C260.55 148.724 260.667 149.237 260.9 149.676C261.134 150.105 261.446 150.437 261.838 150.67C262.23 150.894 262.664 151.006 263.14 151.006C263.616 151.006 264.05 150.894 264.442 150.67C264.844 150.437 265.161 150.105 265.394 149.676C265.628 149.237 265.744 148.729 265.744 148.15ZM274.472 145.378V149.9C274.472 150.273 274.551 150.539 274.71 150.698C274.869 150.847 275.144 150.922 275.536 150.922H276.474V152H275.326C274.617 152 274.085 151.837 273.73 151.51C273.375 151.183 273.198 150.647 273.198 149.9V145.378H272.204V144.328H273.198V142.396H274.472V144.328H276.474V145.378H274.472ZM281.825 144.188C282.404 144.188 282.927 144.314 283.393 144.566C283.86 144.809 284.224 145.177 284.485 145.672C284.756 146.167 284.891 146.769 284.891 147.478V152H283.631V147.66C283.631 146.895 283.44 146.311 283.057 145.91C282.675 145.499 282.152 145.294 281.489 145.294C280.817 145.294 280.281 145.504 279.879 145.924C279.487 146.344 279.291 146.955 279.291 147.758V152H278.017V141.64H279.291V145.42C279.543 145.028 279.889 144.725 280.327 144.51C280.775 144.295 281.275 144.188 281.825 144.188ZM286.497 148.136C286.497 147.352 286.655 146.666 286.973 146.078C287.29 145.481 287.724 145.019 288.275 144.692C288.835 144.365 289.455 144.202 290.137 144.202C290.809 144.202 291.392 144.347 291.887 144.636C292.381 144.925 292.75 145.289 292.993 145.728V144.328H294.281V152H292.993V150.572C292.741 151.02 292.363 151.393 291.859 151.692C291.364 151.981 290.785 152.126 290.123 152.126C289.441 152.126 288.825 151.958 288.275 151.622C287.724 151.286 287.29 150.815 286.973 150.208C286.655 149.601 286.497 148.911 286.497 148.136ZM292.993 148.15C292.993 147.571 292.876 147.067 292.643 146.638C292.409 146.209 292.092 145.882 291.691 145.658C291.299 145.425 290.865 145.308 290.389 145.308C289.913 145.308 289.479 145.42 289.087 145.644C288.695 145.868 288.382 146.195 288.149 146.624C287.915 147.053 287.799 147.557 287.799 148.136C287.799 148.724 287.915 149.237 288.149 149.676C288.382 150.105 288.695 150.437 289.087 150.67C289.479 150.894 289.913 151.006 290.389 151.006C290.865 151.006 291.299 150.894 291.691 150.67C292.092 150.437 292.409 150.105 292.643 149.676C292.876 149.237 292.993 148.729 292.993 148.15ZM300.171 144.188C301.105 144.188 301.861 144.473 302.439 145.042C303.018 145.602 303.307 146.414 303.307 147.478V152H302.047V147.66C302.047 146.895 301.856 146.311 301.473 145.91C301.091 145.499 300.568 145.294 299.905 145.294C299.233 145.294 298.697 145.504 298.295 145.924C297.903 146.344 297.707 146.955 297.707 147.758V152H296.433V144.328H297.707V145.42C297.959 145.028 298.3 144.725 298.729 144.51C299.168 144.295 299.649 144.188 300.171 144.188ZM116.794 173.126C116.206 173.126 115.679 173.028 115.212 172.832C114.745 172.627 114.377 172.347 114.106 171.992C113.835 171.628 113.686 171.213 113.658 170.746H114.974C115.011 171.129 115.189 171.441 115.506 171.684C115.833 171.927 116.257 172.048 116.78 172.048C117.265 172.048 117.648 171.941 117.928 171.726C118.208 171.511 118.348 171.241 118.348 170.914C118.348 170.578 118.199 170.331 117.9 170.172C117.601 170.004 117.139 169.841 116.514 169.682C115.945 169.533 115.478 169.383 115.114 169.234C114.759 169.075 114.451 168.847 114.19 168.548C113.938 168.24 113.812 167.839 113.812 167.344C113.812 166.952 113.929 166.593 114.162 166.266C114.395 165.939 114.727 165.683 115.156 165.496C115.585 165.3 116.075 165.202 116.626 165.202C117.475 165.202 118.161 165.417 118.684 165.846C119.207 166.275 119.487 166.863 119.524 167.61H118.25C118.222 167.209 118.059 166.887 117.76 166.644C117.471 166.401 117.079 166.28 116.584 166.28C116.127 166.28 115.763 166.378 115.492 166.574C115.221 166.77 115.086 167.027 115.086 167.344C115.086 167.596 115.165 167.806 115.324 167.974C115.492 168.133 115.697 168.263 115.94 168.366C116.192 168.459 116.537 168.567 116.976 168.688C117.527 168.837 117.975 168.987 118.32 169.136C118.665 169.276 118.959 169.491 119.202 169.78C119.454 170.069 119.585 170.447 119.594 170.914C119.594 171.334 119.477 171.712 119.244 172.048C119.011 172.384 118.679 172.65 118.25 172.846C117.83 173.033 117.345 173.126 116.794 173.126ZM128.392 168.87C128.392 169.113 128.378 169.369 128.35 169.64H122.218C122.265 170.396 122.522 170.989 122.988 171.418C123.464 171.838 124.038 172.048 124.71 172.048C125.261 172.048 125.718 171.922 126.082 171.67C126.456 171.409 126.717 171.063 126.866 170.634H128.238C128.033 171.371 127.622 171.973 127.006 172.44C126.39 172.897 125.625 173.126 124.71 173.126C123.982 173.126 123.329 172.963 122.75 172.636C122.181 172.309 121.733 171.847 121.406 171.25C121.08 170.643 120.916 169.943 120.916 169.15C120.916 168.357 121.075 167.661 121.392 167.064C121.71 166.467 122.153 166.009 122.722 165.692C123.301 165.365 123.964 165.202 124.71 165.202C125.438 165.202 126.082 165.361 126.642 165.678C127.202 165.995 127.632 166.434 127.93 166.994C128.238 167.545 128.392 168.17 128.392 168.87ZM127.076 168.604C127.076 168.119 126.969 167.703 126.754 167.358C126.54 167.003 126.246 166.737 125.872 166.56C125.508 166.373 125.102 166.28 124.654 166.28C124.01 166.28 123.46 166.485 123.002 166.896C122.554 167.307 122.298 167.876 122.232 168.604H127.076ZM131.628 166.378V170.9C131.628 171.273 131.707 171.539 131.866 171.698C132.025 171.847 132.3 171.922 132.692 171.922H133.63V173H132.482C131.773 173 131.241 172.837 130.886 172.51C130.531 172.183 130.354 171.647 130.354 170.9V166.378H129.36V165.328H130.354V163.396H131.628V165.328H133.63V166.378H131.628ZM149.126 165.328L146.732 173H145.416L143.568 166.91L141.72 173H140.404L137.996 165.328H139.298L141.062 171.768L142.966 165.328H144.268L146.13 171.782L147.866 165.328H149.126ZM154.199 165.188C154.777 165.188 155.3 165.314 155.767 165.566C156.233 165.809 156.597 166.177 156.859 166.672C157.129 167.167 157.265 167.769 157.265 168.478V173H156.005V168.66C156.005 167.895 155.813 167.311 155.431 166.91C155.048 166.499 154.525 166.294 153.863 166.294C153.191 166.294 152.654 166.504 152.253 166.924C151.861 167.344 151.665 167.955 151.665 168.758V173H150.391V162.64H151.665V166.42C151.917 166.028 152.262 165.725 152.701 165.51C153.149 165.295 153.648 165.188 154.199 165.188ZM165.954 165.328L161.334 176.612H160.018L161.53 172.916L158.436 165.328H159.85L162.258 171.544L164.638 165.328H165.954ZM181.187 165.328L178.793 173H177.477L175.629 166.91L173.781 173H172.465L170.057 165.328H171.359L173.123 171.768L175.027 165.328H176.329L178.191 171.782L179.927 165.328H181.187ZM183.109 164.082C182.866 164.082 182.661 163.998 182.493 163.83C182.325 163.662 182.241 163.457 182.241 163.214C182.241 162.971 182.325 162.766 182.493 162.598C182.661 162.43 182.866 162.346 183.109 162.346C183.342 162.346 183.538 162.43 183.697 162.598C183.865 162.766 183.949 162.971 183.949 163.214C183.949 163.457 183.865 163.662 183.697 163.83C183.538 163.998 183.342 164.082 183.109 164.082ZM183.725 165.328V173H182.451V165.328H183.725ZM189.018 166.378H187.408V173H186.134V166.378H185.14V165.328H186.134V164.782C186.134 163.923 186.354 163.298 186.792 162.906C187.24 162.505 187.954 162.304 188.934 162.304V163.368C188.374 163.368 187.978 163.48 187.744 163.704C187.52 163.919 187.408 164.278 187.408 164.782V165.328H189.018V166.378ZM197.504 168.87C197.504 169.113 197.49 169.369 197.462 169.64H191.33C191.376 170.396 191.633 170.989 192.1 171.418C192.576 171.838 193.15 172.048 193.822 172.048C194.372 172.048 194.83 171.922 195.194 171.67C195.567 171.409 195.828 171.063 195.978 170.634H197.35C197.144 171.371 196.734 171.973 196.118 172.44C195.502 172.897 194.736 173.126 193.822 173.126C193.094 173.126 192.44 172.963 191.862 172.636C191.292 172.309 190.844 171.847 190.518 171.25C190.191 170.643 190.028 169.943 190.028 169.15C190.028 168.357 190.186 167.661 190.504 167.064C190.821 166.467 191.264 166.009 191.834 165.692C192.412 165.365 193.075 165.202 193.822 165.202C194.55 165.202 195.194 165.361 195.754 165.678C196.314 165.995 196.743 166.434 197.042 166.994C197.35 167.545 197.504 168.17 197.504 168.87ZM196.188 168.604C196.188 168.119 196.08 167.703 195.866 167.358C195.651 167.003 195.357 166.737 194.984 166.56C194.62 166.373 194.214 166.28 193.766 166.28C193.122 166.28 192.571 166.485 192.114 166.896C191.666 167.307 191.409 167.876 191.344 168.604H196.188ZM206.264 173.126C205.545 173.126 204.892 172.963 204.304 172.636C203.725 172.309 203.268 171.847 202.932 171.25C202.605 170.643 202.442 169.943 202.442 169.15C202.442 168.366 202.61 167.675 202.946 167.078C203.291 166.471 203.758 166.009 204.346 165.692C204.934 165.365 205.592 165.202 206.32 165.202C207.048 165.202 207.706 165.365 208.294 165.692C208.882 166.009 209.344 166.467 209.68 167.064C210.025 167.661 210.198 168.357 210.198 169.15C210.198 169.943 210.021 170.643 209.666 171.25C209.321 171.847 208.849 172.309 208.252 172.636C207.655 172.963 206.992 173.126 206.264 173.126ZM206.264 172.006C206.721 172.006 207.151 171.899 207.552 171.684C207.953 171.469 208.275 171.147 208.518 170.718C208.77 170.289 208.896 169.766 208.896 169.15C208.896 168.534 208.775 168.011 208.532 167.582C208.289 167.153 207.972 166.835 207.58 166.63C207.188 166.415 206.763 166.308 206.306 166.308C205.839 166.308 205.41 166.415 205.018 166.63C204.635 166.835 204.327 167.153 204.094 167.582C203.861 168.011 203.744 168.534 203.744 169.15C203.744 169.775 203.856 170.303 204.08 170.732C204.313 171.161 204.621 171.483 205.004 171.698C205.387 171.903 205.807 172.006 206.264 172.006ZM218.677 165.328V173H217.403V171.866C217.16 172.258 216.82 172.566 216.381 172.79C215.952 173.005 215.476 173.112 214.953 173.112C214.356 173.112 213.819 172.991 213.343 172.748C212.867 172.496 212.489 172.123 212.209 171.628C211.938 171.133 211.803 170.531 211.803 169.822V165.328H213.063V169.654C213.063 170.41 213.254 170.993 213.637 171.404C214.02 171.805 214.542 172.006 215.205 172.006C215.886 172.006 216.423 171.796 216.815 171.376C217.207 170.956 217.403 170.345 217.403 169.542V165.328H218.677ZM222.102 166.574C222.326 166.135 222.643 165.795 223.054 165.552C223.474 165.309 223.983 165.188 224.58 165.188V166.504H224.244C222.816 166.504 222.102 167.279 222.102 168.828V173H220.828V165.328H222.102V166.574ZM232.877 173.098C232.233 173.098 231.654 172.986 231.141 172.762C230.637 172.529 230.24 172.211 229.951 171.81C229.662 171.399 229.512 170.928 229.503 170.396H230.861C230.908 170.853 231.094 171.241 231.421 171.558C231.757 171.866 232.242 172.02 232.877 172.02C233.484 172.02 233.96 171.871 234.305 171.572C234.66 171.264 234.837 170.872 234.837 170.396C234.837 170.023 234.734 169.719 234.529 169.486C234.324 169.253 234.067 169.075 233.759 168.954C233.451 168.833 233.036 168.702 232.513 168.562C231.869 168.394 231.351 168.226 230.959 168.058C230.576 167.89 230.245 167.629 229.965 167.274C229.694 166.91 229.559 166.425 229.559 165.818C229.559 165.286 229.694 164.815 229.965 164.404C230.236 163.993 230.614 163.676 231.099 163.452C231.594 163.228 232.158 163.116 232.793 163.116C233.708 163.116 234.454 163.345 235.033 163.802C235.621 164.259 235.952 164.866 236.027 165.622H234.627C234.58 165.249 234.384 164.922 234.039 164.642C233.694 164.353 233.236 164.208 232.667 164.208C232.135 164.208 231.701 164.348 231.365 164.628C231.029 164.899 230.861 165.281 230.861 165.776C230.861 166.131 230.959 166.42 231.155 166.644C231.36 166.868 231.608 167.041 231.897 167.162C232.196 167.274 232.611 167.405 233.143 167.554C233.787 167.731 234.305 167.909 234.697 168.086C235.089 168.254 235.425 168.52 235.705 168.884C235.985 169.239 236.125 169.724 236.125 170.34C236.125 170.816 235.999 171.264 235.747 171.684C235.495 172.104 235.122 172.445 234.627 172.706C234.132 172.967 233.549 173.098 232.877 173.098ZM238.658 164.082C238.415 164.082 238.21 163.998 238.042 163.83C237.874 163.662 237.79 163.457 237.79 163.214C237.79 162.971 237.874 162.766 238.042 162.598C238.21 162.43 238.415 162.346 238.658 162.346C238.891 162.346 239.087 162.43 239.246 162.598C239.414 162.766 239.498 162.971 239.498 163.214C239.498 163.457 239.414 163.662 239.246 163.83C239.087 163.998 238.891 164.082 238.658 164.082ZM239.274 165.328V173H238V165.328H239.274ZM244.609 165.202C245.272 165.202 245.851 165.347 246.345 165.636C246.849 165.925 247.223 166.289 247.465 166.728V165.328H248.753V173.168C248.753 173.868 248.604 174.489 248.305 175.03C248.007 175.581 247.577 176.01 247.017 176.318C246.467 176.626 245.823 176.78 245.085 176.78C244.077 176.78 243.237 176.542 242.565 176.066C241.893 175.59 241.497 174.941 241.375 174.12H242.635C242.775 174.587 243.065 174.96 243.503 175.24C243.942 175.529 244.469 175.674 245.085 175.674C245.785 175.674 246.355 175.455 246.793 175.016C247.241 174.577 247.465 173.961 247.465 173.168V171.558C247.213 172.006 246.84 172.379 246.345 172.678C245.851 172.977 245.272 173.126 244.609 173.126C243.928 173.126 243.307 172.958 242.747 172.622C242.197 172.286 241.763 171.815 241.445 171.208C241.128 170.601 240.969 169.911 240.969 169.136C240.969 168.352 241.128 167.666 241.445 167.078C241.763 166.481 242.197 166.019 242.747 165.692C243.307 165.365 243.928 165.202 244.609 165.202ZM247.465 169.15C247.465 168.571 247.349 168.067 247.115 167.638C246.882 167.209 246.565 166.882 246.163 166.658C245.771 166.425 245.337 166.308 244.861 166.308C244.385 166.308 243.951 166.42 243.559 166.644C243.167 166.868 242.855 167.195 242.621 167.624C242.388 168.053 242.271 168.557 242.271 169.136C242.271 169.724 242.388 170.237 242.621 170.676C242.855 171.105 243.167 171.437 243.559 171.67C243.951 171.894 244.385 172.006 244.861 172.006C245.337 172.006 245.771 171.894 246.163 171.67C246.565 171.437 246.882 171.105 247.115 170.676C247.349 170.237 247.465 169.729 247.465 169.15ZM254.714 165.188C255.293 165.188 255.815 165.314 256.282 165.566C256.749 165.809 257.113 166.177 257.374 166.672C257.645 167.167 257.78 167.769 257.78 168.478V173H256.52V168.66C256.52 167.895 256.329 167.311 255.946 166.91C255.563 166.499 255.041 166.294 254.378 166.294C253.706 166.294 253.169 166.504 252.768 166.924C252.376 167.344 252.18 167.955 252.18 168.758V173H250.906V162.64H252.18V166.42C252.432 166.028 252.777 165.725 253.216 165.51C253.664 165.295 254.163 165.188 254.714 165.188ZM266.45 171.824L268.83 165.328H270.188L267.178 173H265.694L262.684 165.328H264.056L266.45 171.824ZM272.099 164.082C271.857 164.082 271.651 163.998 271.483 163.83C271.315 163.662 271.231 163.457 271.231 163.214C271.231 162.971 271.315 162.766 271.483 162.598C271.651 162.43 271.857 162.346 272.099 162.346C272.333 162.346 272.529 162.43 272.687 162.598C272.855 162.766 272.939 162.971 272.939 163.214C272.939 163.457 272.855 163.662 272.687 163.83C272.529 163.998 272.333 164.082 272.099 164.082ZM272.715 165.328V173H271.441V165.328H272.715ZM281.887 168.87C281.887 169.113 281.873 169.369 281.845 169.64H275.713C275.759 170.396 276.016 170.989 276.483 171.418C276.959 171.838 277.533 172.048 278.205 172.048C278.755 172.048 279.213 171.922 279.577 171.67C279.95 171.409 280.211 171.063 280.361 170.634H281.733C281.527 171.371 281.117 171.973 280.501 172.44C279.885 172.897 279.119 173.126 278.205 173.126C277.477 173.126 276.823 172.963 276.245 172.636C275.675 172.309 275.227 171.847 274.901 171.25C274.574 170.643 274.411 169.943 274.411 169.15C274.411 168.357 274.569 167.661 274.887 167.064C275.204 166.467 275.647 166.009 276.217 165.692C276.795 165.365 277.458 165.202 278.205 165.202C278.933 165.202 279.577 165.361 280.137 165.678C280.697 165.995 281.126 166.434 281.425 166.994C281.733 167.545 281.887 168.17 281.887 168.87ZM280.571 168.604C280.571 168.119 280.463 167.703 280.249 167.358C280.034 167.003 279.74 166.737 279.367 166.56C279.003 166.373 278.597 166.28 278.149 166.28C277.505 166.28 276.954 166.485 276.497 166.896C276.049 167.307 275.792 167.876 275.727 168.604H280.571ZM293.788 165.328L291.394 173H290.078L288.23 166.91L286.382 173H285.066L282.658 165.328H283.96L285.724 171.768L287.628 165.328H288.93L290.792 171.782L292.528 165.328H293.788ZM113.602 190.136C113.602 189.352 113.761 188.666 114.078 188.078C114.395 187.481 114.829 187.019 115.38 186.692C115.94 186.365 116.561 186.202 117.242 186.202C117.914 186.202 118.497 186.347 118.992 186.636C119.487 186.925 119.855 187.289 120.098 187.728V186.328H121.386V194H120.098V192.572C119.846 193.02 119.468 193.393 118.964 193.692C118.469 193.981 117.891 194.126 117.228 194.126C116.547 194.126 115.931 193.958 115.38 193.622C114.829 193.286 114.395 192.815 114.078 192.208C113.761 191.601 113.602 190.911 113.602 190.136ZM120.098 190.15C120.098 189.571 119.981 189.067 119.748 188.638C119.515 188.209 119.197 187.882 118.796 187.658C118.404 187.425 117.97 187.308 117.494 187.308C117.018 187.308 116.584 187.42 116.192 187.644C115.8 187.868 115.487 188.195 115.254 188.624C115.021 189.053 114.904 189.557 114.904 190.136C114.904 190.724 115.021 191.237 115.254 191.676C115.487 192.105 115.8 192.437 116.192 192.67C116.584 192.894 117.018 193.006 117.494 193.006C117.97 193.006 118.404 192.894 118.796 192.67C119.197 192.437 119.515 192.105 119.748 191.676C119.981 191.237 120.098 190.729 120.098 190.15ZM132.765 186.188C133.362 186.188 133.894 186.314 134.361 186.566C134.828 186.809 135.196 187.177 135.467 187.672C135.738 188.167 135.873 188.769 135.873 189.478V194H134.613V189.66C134.613 188.895 134.422 188.311 134.039 187.91C133.666 187.499 133.157 187.294 132.513 187.294C131.85 187.294 131.323 187.509 130.931 187.938C130.539 188.358 130.343 188.969 130.343 189.772V194H129.083V189.66C129.083 188.895 128.892 188.311 128.509 187.91C128.136 187.499 127.627 187.294 126.983 187.294C126.32 187.294 125.793 187.509 125.401 187.938C125.009 188.358 124.813 188.969 124.813 189.772V194H123.539V186.328H124.813V187.434C125.065 187.033 125.401 186.725 125.821 186.51C126.25 186.295 126.722 186.188 127.235 186.188C127.879 186.188 128.448 186.333 128.943 186.622C129.438 186.911 129.806 187.336 130.049 187.896C130.264 187.355 130.618 186.935 131.113 186.636C131.608 186.337 132.158 186.188 132.765 186.188ZM145.503 186.188C146.082 186.188 146.605 186.314 147.071 186.566C147.538 186.809 147.902 187.177 148.163 187.672C148.434 188.167 148.569 188.769 148.569 189.478V194H147.309V189.66C147.309 188.895 147.118 188.311 146.735 187.91C146.353 187.499 145.83 187.294 145.167 187.294C144.495 187.294 143.959 187.504 143.557 187.924C143.165 188.344 142.969 188.955 142.969 189.758V194H141.695V183.64H142.969V187.42C143.221 187.028 143.567 186.725 144.005 186.51C144.453 186.295 144.953 186.188 145.503 186.188ZM151.308 185.082C151.066 185.082 150.86 184.998 150.692 184.83C150.524 184.662 150.44 184.457 150.44 184.214C150.44 183.971 150.524 183.766 150.692 183.598C150.86 183.43 151.066 183.346 151.308 183.346C151.542 183.346 151.738 183.43 151.896 183.598C152.064 183.766 152.148 183.971 152.148 184.214C152.148 184.457 152.064 184.662 151.896 184.83C151.738 184.998 151.542 185.082 151.308 185.082ZM151.924 186.328V194H150.65V186.328H151.924ZM157.26 186.202C157.922 186.202 158.501 186.347 158.996 186.636C159.5 186.925 159.873 187.289 160.116 187.728V186.328H161.404V194.168C161.404 194.868 161.254 195.489 160.956 196.03C160.657 196.581 160.228 197.01 159.668 197.318C159.117 197.626 158.473 197.78 157.736 197.78C156.728 197.78 155.888 197.542 155.216 197.066C154.544 196.59 154.147 195.941 154.026 195.12H155.286C155.426 195.587 155.715 195.96 156.154 196.24C156.592 196.529 157.12 196.674 157.736 196.674C158.436 196.674 159.005 196.455 159.444 196.016C159.892 195.577 160.116 194.961 160.116 194.168V192.558C159.864 193.006 159.49 193.379 158.996 193.678C158.501 193.977 157.922 194.126 157.26 194.126C156.578 194.126 155.958 193.958 155.398 193.622C154.847 193.286 154.413 192.815 154.096 192.208C153.778 191.601 153.62 190.911 153.62 190.136C153.62 189.352 153.778 188.666 154.096 188.078C154.413 187.481 154.847 187.019 155.398 186.692C155.958 186.365 156.578 186.202 157.26 186.202ZM160.116 190.15C160.116 189.571 159.999 189.067 159.766 188.638C159.532 188.209 159.215 187.882 158.814 187.658C158.422 187.425 157.988 187.308 157.512 187.308C157.036 187.308 156.602 187.42 156.21 187.644C155.818 187.868 155.505 188.195 155.272 188.624C155.038 189.053 154.922 189.557 154.922 190.136C154.922 190.724 155.038 191.237 155.272 191.676C155.505 192.105 155.818 192.437 156.21 192.67C156.602 192.894 157.036 193.006 157.512 193.006C157.988 193.006 158.422 192.894 158.814 192.67C159.215 192.437 159.532 192.105 159.766 191.676C159.999 191.237 160.116 190.729 160.116 190.15ZM167.365 186.188C167.943 186.188 168.466 186.314 168.933 186.566C169.399 186.809 169.763 187.177 170.025 187.672C170.295 188.167 170.431 188.769 170.431 189.478V194H169.171V189.66C169.171 188.895 168.979 188.311 168.597 187.91C168.214 187.499 167.691 187.294 167.029 187.294C166.357 187.294 165.82 187.504 165.419 187.924C165.027 188.344 164.831 188.955 164.831 189.758V194H163.557V183.64H164.831V187.42C165.083 187.028 165.428 186.725 165.867 186.51C166.315 186.295 166.814 186.188 167.365 186.188ZM179.982 186.188C180.915 186.188 181.671 186.473 182.25 187.042C182.829 187.602 183.118 188.414 183.118 189.478V194H181.858V189.66C181.858 188.895 181.667 188.311 181.284 187.91C180.901 187.499 180.379 187.294 179.716 187.294C179.044 187.294 178.507 187.504 178.106 187.924C177.714 188.344 177.518 188.955 177.518 189.758V194H176.244V186.328H177.518V187.42C177.77 187.028 178.111 186.725 178.54 186.51C178.979 186.295 179.459 186.188 179.982 186.188ZM192.199 189.87C192.199 190.113 192.185 190.369 192.157 190.64H186.025C186.072 191.396 186.328 191.989 186.795 192.418C187.271 192.838 187.845 193.048 188.517 193.048C189.068 193.048 189.525 192.922 189.889 192.67C190.262 192.409 190.524 192.063 190.673 191.634H192.045C191.84 192.371 191.429 192.973 190.813 193.44C190.197 193.897 189.432 194.126 188.517 194.126C187.789 194.126 187.136 193.963 186.557 193.636C185.988 193.309 185.54 192.847 185.213 192.25C184.886 191.643 184.723 190.943 184.723 190.15C184.723 189.357 184.882 188.661 185.199 188.064C185.516 187.467 185.96 187.009 186.529 186.692C187.108 186.365 187.77 186.202 188.517 186.202C189.245 186.202 189.889 186.361 190.449 186.678C191.009 186.995 191.438 187.434 191.737 187.994C192.045 188.545 192.199 189.17 192.199 189.87ZM190.883 189.604C190.883 189.119 190.776 188.703 190.561 188.358C190.346 188.003 190.052 187.737 189.679 187.56C189.315 187.373 188.909 187.28 188.461 187.28C187.817 187.28 187.266 187.485 186.809 187.896C186.361 188.307 186.104 188.876 186.039 189.604H190.883ZM193.405 190.136C193.405 189.352 193.563 188.666 193.881 188.078C194.198 187.481 194.632 187.019 195.183 186.692C195.743 186.365 196.363 186.202 197.045 186.202C197.717 186.202 198.3 186.347 198.795 186.636C199.289 186.925 199.658 187.289 199.901 187.728V186.328H201.189V194H199.901V192.572C199.649 193.02 199.271 193.393 198.767 193.692C198.272 193.981 197.693 194.126 197.031 194.126C196.349 194.126 195.733 193.958 195.183 193.622C194.632 193.286 194.198 192.815 193.881 192.208C193.563 191.601 193.405 190.911 193.405 190.136ZM199.901 190.15C199.901 189.571 199.784 189.067 199.551 188.638C199.317 188.209 199 187.882 198.599 187.658C198.207 187.425 197.773 187.308 197.297 187.308C196.821 187.308 196.387 187.42 195.995 187.644C195.603 187.868 195.29 188.195 195.057 188.624C194.823 189.053 194.707 189.557 194.707 190.136C194.707 190.724 194.823 191.237 195.057 191.676C195.29 192.105 195.603 192.437 195.995 192.67C196.387 192.894 196.821 193.006 197.297 193.006C197.773 193.006 198.207 192.894 198.599 192.67C199 192.437 199.317 192.105 199.551 191.676C199.784 191.237 199.901 190.729 199.901 190.15ZM204.896 187.378V191.9C204.896 192.273 204.975 192.539 205.134 192.698C205.292 192.847 205.568 192.922 205.96 192.922H206.898V194H205.75C205.04 194 204.508 193.837 204.154 193.51C203.799 193.183 203.622 192.647 203.622 191.9V187.378H202.628V186.328H203.622V184.396H204.896V186.328H206.898V187.378H204.896Z" fill="black" fill-opacity="0.5"/>
<path d="M166.505 72.9412C166.505 73.7783 166.304 74.5631 165.9 75.2956C165.511 76.0281 164.891 76.6185 164.039 77.067C163.202 77.5154 162.14 77.7397 160.855 77.7397H158.231V83.749H155.092V68.0978H160.855C162.066 68.0978 163.097 68.3071 163.949 68.7256C164.801 69.1442 165.437 69.7197 165.855 70.4522C166.289 71.1847 166.505 72.0143 166.505 72.9412ZM160.72 75.2059C161.587 75.2059 162.23 75.0115 162.649 74.6229C163.067 74.2193 163.276 73.6587 163.276 72.9412C163.276 71.4164 162.424 70.654 160.72 70.654H158.231V75.2059H160.72ZM171.873 73.2551C172.277 72.5973 172.8 72.0816 173.443 71.7079C174.101 71.3342 174.848 71.1473 175.685 71.1473V74.4435H174.856C173.869 74.4435 173.122 74.6752 172.613 75.1386C172.12 75.602 171.873 76.4092 171.873 77.5603V83.749H168.734V71.3267H171.873V73.2551ZM183.316 83.9508C182.12 83.9508 181.044 83.6892 180.087 83.166C179.13 82.6279 178.375 81.873 177.822 80.9013C177.284 79.9296 177.015 78.8085 177.015 77.5379C177.015 76.2672 177.291 75.1461 177.845 74.1744C178.413 73.2028 179.182 72.4553 180.154 71.9321C181.126 71.394 182.21 71.1249 183.405 71.1249C184.601 71.1249 185.685 71.394 186.657 71.9321C187.628 72.4553 188.391 73.2028 188.944 74.1744C189.512 75.1461 189.796 76.2672 189.796 77.5379C189.796 78.8085 189.505 79.9296 188.922 80.9013C188.353 81.873 187.576 82.6279 186.59 83.166C185.618 83.6892 184.527 83.9508 183.316 83.9508ZM183.316 81.2152C183.884 81.2152 184.415 81.0807 184.908 80.8116C185.416 80.5276 185.82 80.109 186.119 79.5559C186.418 79.0028 186.567 78.3301 186.567 77.5379C186.567 76.3569 186.253 75.4525 185.625 74.8247C185.012 74.1819 184.258 73.8605 183.361 73.8605C182.464 73.8605 181.709 74.1819 181.096 74.8247C180.498 75.4525 180.199 76.3569 180.199 77.5379C180.199 78.7188 180.49 79.6307 181.073 80.2735C181.671 80.9013 182.419 81.2152 183.316 81.2152ZM193.691 69.8468C193.123 69.8468 192.652 69.6749 192.278 69.3311C191.919 68.9723 191.74 68.5313 191.74 68.0081C191.74 67.4849 191.919 67.0514 192.278 66.7076C192.652 66.3488 193.123 66.1694 193.691 66.1694C194.244 66.1694 194.7 66.3488 195.059 66.7076C195.417 67.0514 195.597 67.4849 195.597 68.0081C195.597 68.5313 195.417 68.9723 195.059 69.3311C194.7 69.6749 194.244 69.8468 193.691 69.8468ZM195.238 85.7895C195.238 87.1648 194.894 88.1514 194.207 88.7493C193.534 89.3622 192.562 89.6687 191.292 89.6687H189.901V87.0004H190.798C191.277 87.0004 191.613 86.9032 191.807 86.7089C192.002 86.5295 192.099 86.2305 192.099 85.8119V71.3267H195.238V85.7895ZM209.887 77.2688C209.887 77.7172 209.857 78.1209 209.798 78.4796H200.716C200.791 79.3765 201.105 80.0791 201.658 80.5874C202.211 81.0956 202.891 81.3498 203.699 81.3498C204.865 81.3498 205.694 80.849 206.188 79.8474H209.573C209.215 81.0433 208.527 82.0299 207.51 82.8073C206.494 83.5696 205.246 83.9508 203.766 83.9508C202.57 83.9508 201.494 83.6892 200.537 83.166C199.595 82.6279 198.855 81.873 198.317 80.9013C197.794 79.9296 197.532 78.8085 197.532 77.5379C197.532 76.2523 197.794 75.1237 198.317 74.152C198.84 73.1803 199.573 72.4329 200.515 71.9097C201.456 71.3865 202.54 71.1249 203.766 71.1249C204.947 71.1249 206.001 71.379 206.928 71.8873C207.869 72.3955 208.594 73.1205 209.103 74.0623C209.626 74.9891 209.887 76.0579 209.887 77.2688ZM206.636 76.3719C206.621 75.5646 206.33 74.9219 205.762 74.4435C205.193 73.9502 204.498 73.7035 203.676 73.7035C202.899 73.7035 202.241 73.9427 201.703 74.4211C201.18 74.8845 200.858 75.5347 200.739 76.3719H206.636ZM211.371 77.5379C211.371 76.2523 211.633 75.1311 212.156 74.1744C212.679 73.2028 213.404 72.4553 214.331 71.9321C215.258 71.394 216.319 71.1249 217.515 71.1249C219.055 71.1249 220.326 71.5136 221.327 72.2909C222.344 73.0533 223.024 74.1296 223.368 75.5198H219.982C219.802 74.9816 219.496 74.5631 219.063 74.2641C218.644 73.9502 218.121 73.7932 217.493 73.7932C216.596 73.7932 215.886 74.1221 215.363 74.7798C214.84 75.4226 214.578 76.342 214.578 77.5379C214.578 78.7188 214.84 79.6381 215.363 80.2959C215.886 80.9387 216.596 81.2601 217.493 81.2601C218.764 81.2601 219.593 80.692 219.982 79.5559H223.368C223.024 80.9013 222.344 81.9701 221.327 82.7624C220.311 83.5547 219.04 83.9508 217.515 83.9508C216.319 83.9508 215.258 83.6892 214.331 83.166C213.404 82.6279 212.679 81.8804 212.156 80.9237C211.633 79.9521 211.371 78.8234 211.371 77.5379ZM229.322 73.9053V79.9147C229.322 80.3333 229.42 80.6397 229.614 80.834C229.823 81.0134 230.167 81.1031 230.645 81.1031H232.103V83.749H230.13C227.484 83.749 226.161 82.4634 226.161 79.8923V73.9053H224.681V71.3267H226.161V68.2548H229.322V71.3267H232.103V73.9053H229.322ZM238.964 70.2952V67.4027H244.368V83.749H241.139V70.2952H238.964Z" fill="#4A3AFF"/>
<path d="M136.508 95H115.28C111.763 95 109 91.7057 109 87.5129V62.2066C109 58.0138 111.763 54.7195 115.28 54.7195H136.508C140.025 54.7195 142.788 58.0138 142.788 62.2066V87.5129C142.788 91.7057 139.899 95 136.508 95Z" fill="white" fill-opacity="0.2"/>
<path fill-rule="evenodd" clip-rule="evenodd" d="M118.364 60.1165C118.181 60.1799 118.023 60.2404 118.014 60.251C117.992 60.2752 118.77 63.9369 118.816 64.0248C118.84 64.0719 118.938 64.0633 119.178 63.9933C119.359 63.9405 119.526 63.8779 119.548 63.8541C119.578 63.8218 118.966 60.789 118.788 60.0918C118.758 59.9737 118.782 59.9723 118.364 60.1165ZM130.355 60.1941C130.187 60.3347 130.16 60.4424 130.035 61.4697C129.97 62.0044 129.894 62.4917 129.867 62.5525C129.782 62.7414 129.602 62.8475 129.439 62.8047C129.318 62.7731 129.192 62.6084 128.744 61.8964C128.165 60.9771 128.038 60.8487 127.806 60.954C127.736 60.9857 127.405 61.2581 127.07 61.5593L126.462 62.1072L126.03 62.0746C124.772 61.9803 123.399 62.3306 122.211 63.0491C121.456 63.5056 120.877 64.0089 120.27 64.7351C119.009 66.2435 118.268 68.0535 118.047 70.1694C117.991 70.7039 117.983 70.7315 117.875 70.7315C117.813 70.7315 117.703 70.8019 117.631 70.8878C117.521 71.0198 117.48 71.1696 117.363 71.8537C117.286 72.2991 117.206 72.6634 117.185 72.6634C117.164 72.6634 116.895 72.4534 116.588 72.1965C115.786 71.5252 115.85 71.5099 114.956 72.5833C114.355 73.305 114.244 73.4646 114.244 73.6091C114.244 73.7306 114.361 73.9844 114.649 74.4851C114.871 74.8728 115.054 75.204 115.054 75.221C115.054 75.2381 114.748 75.3265 114.375 75.4176C113.801 75.5575 113.676 75.6072 113.565 75.7383L113.434 75.8935V77.0103V78.127L113.565 78.2823C113.676 78.4133 113.801 78.4631 114.363 78.6002C114.73 78.6896 115.039 78.7716 115.051 78.7824C115.062 78.7932 114.882 79.1327 114.652 79.5368C114.276 80.1952 114.235 80.2911 114.262 80.4599C114.285 80.6052 114.448 80.8341 114.972 81.459C115.855 82.5095 115.785 82.4929 116.575 81.844C116.901 81.5762 117.181 81.3571 117.196 81.3571C117.211 81.3571 117.286 81.7214 117.363 82.1668C117.48 82.8509 117.521 83.0007 117.631 83.1328L117.762 83.289H118.698H119.634L119.764 83.1328C119.874 83.0007 119.916 82.8509 120.033 82.1668C120.109 81.7215 120.184 81.3571 120.2 81.3571C120.215 81.3571 120.494 81.5762 120.82 81.844C121.562 82.4535 121.586 82.4538 122.084 81.8635L122.427 81.4573L122.446 82.359C122.462 83.1299 122.479 83.2996 122.567 83.5295C122.7 83.8805 122.879 84.155 123.079 84.3188L123.24 84.4507L123.256 86.0148L123.271 87.579L123.404 87.9199C123.578 88.363 123.855 88.6959 124.218 88.8954C124.503 89.0524 124.53 89.0561 125.507 89.0753C126.598 89.0968 126.96 89.0464 127.272 88.83C127.559 88.6311 127.818 88.2972 127.957 87.9483C128.081 87.6381 128.082 87.6244 128.098 86.0448L128.113 84.4538L128.301 84.297C128.405 84.2107 128.554 84.0189 128.633 83.8708C128.881 83.4035 128.915 83.1612 128.915 81.8701C128.915 79.9855 129.056 79.5935 130.029 78.7726C130.67 78.232 130.795 78.0961 130.744 77.9933C130.721 77.9457 130.604 77.7783 130.485 77.6212L130.268 77.3357L130.104 77.5C130.014 77.5903 129.74 77.8349 129.496 78.0434C128.803 78.6352 128.456 79.1585 128.241 79.9366C128.151 80.2602 128.135 80.4824 128.11 81.731L128.082 83.1562L127.948 83.3647C127.697 83.757 127.747 83.7491 125.64 83.7313L123.747 83.7152L123.592 83.5828C123.288 83.325 123.274 83.2424 123.243 81.6412C123.212 80.0147 123.177 79.8079 122.822 79.1568C122.589 78.7295 122.37 78.478 121.818 78.0051C121.225 77.4977 120.923 77.1837 120.524 76.6596C119.688 75.5614 119.114 74.1544 118.858 72.5782C118.759 71.9706 118.774 70.259 118.883 69.6519C119.323 67.2074 120.529 65.2229 122.277 64.0698C123.189 63.468 124.127 63.137 125.212 63.0341C125.565 63.0007 125.581 63.0044 125.581 63.1189C125.581 63.2902 125.63 63.3844 126.182 64.2652C126.693 65.082 126.762 65.2806 126.616 65.5089C126.468 65.7379 126.384 65.7435 125.46 65.5852C124.489 65.4187 124.359 65.4329 124.25 65.7177C124.165 65.9417 123.843 68.7444 123.882 68.9267C123.937 69.1829 124.096 69.2545 124.938 69.4003C125.372 69.4757 125.781 69.5533 125.846 69.5728C126.089 69.6453 126.188 70.0675 126.021 70.3117C125.975 70.3776 125.636 70.7017 125.266 71.0318C124.59 71.6353 124.533 71.7071 124.533 71.9559C124.533 72.109 126.039 74.5491 126.195 74.6487C126.401 74.78 126.523 74.7132 127.233 74.0816C127.621 73.7366 127.986 73.44 128.044 73.4226C128.202 73.3752 128.407 73.4779 128.485 73.6435C128.547 73.7745 128.542 73.8952 128.445 74.747C128.385 75.273 128.343 75.8031 128.351 75.925C128.379 76.2988 128.467 76.3394 129.729 76.558C131.053 76.7874 131.261 76.798 131.391 76.6424C131.508 76.5037 131.51 76.4897 131.652 75.3056C131.759 74.42 131.779 74.329 131.893 74.2118C132.017 74.0845 132.171 74.0514 132.321 74.1201C132.365 74.14 132.626 74.5172 132.902 74.9582C133.178 75.3993 133.447 75.805 133.499 75.8596C133.721 76.0916 133.845 76.021 134.965 75.0203C136.024 74.0749 136.145 73.9272 136.089 73.6571C136.075 73.5918 135.83 73.1675 135.544 72.7141C135.259 72.2608 135.011 71.8372 134.994 71.7728C134.95 71.6085 135.034 71.3799 135.179 71.2662C135.296 71.1747 135.349 71.1775 136.204 71.3194C137.126 71.4724 137.258 71.4676 137.391 71.2759C137.447 71.1955 137.819 68.4366 137.822 68.0783C137.823 68.0097 137.775 67.8871 137.716 67.8059C137.617 67.6694 137.538 67.6456 136.687 67.4965C136.119 67.3969 135.739 67.3042 135.698 67.2549C135.588 67.1231 135.54 66.8403 135.602 66.6894C135.633 66.6156 135.947 66.2942 136.3 65.9753C137.015 65.3291 137.156 65.1627 137.156 64.9632C137.156 64.8756 136.897 64.4121 136.436 63.6737C135.527 62.2201 135.518 62.2083 135.293 62.2083C135.14 62.2083 135.013 62.2983 134.408 62.8358C134.02 63.1808 133.656 63.4772 133.599 63.4943C133.436 63.5434 133.233 63.395 133.175 63.1843C133.136 63.0379 133.148 62.8009 133.234 62.1054C133.371 60.9841 133.371 60.8867 133.238 60.7024C133.137 60.5615 133.064 60.5421 131.845 60.3315C131.138 60.2093 130.537 60.1086 130.51 60.1077C130.483 60.1067 130.413 60.1456 130.355 60.1941ZM132.476 61.4363C132.486 61.4488 132.459 61.7491 132.415 62.1036C132.302 63.0219 132.31 63.323 132.458 63.6706C132.752 64.3635 133.476 64.6645 134.036 64.3267C134.115 64.279 134.41 64.0353 134.693 63.785C134.975 63.5347 135.213 63.3396 135.221 63.3515C135.413 63.6382 136.117 64.7852 136.132 64.8364C136.144 64.8763 135.954 65.0813 135.698 65.3051C134.947 65.9612 134.763 66.2738 134.763 66.8982C134.763 67.4763 135.044 67.9895 135.481 68.2074C135.576 68.2544 135.941 68.3434 136.294 68.4052C136.647 68.4671 136.942 68.5248 136.949 68.5336C136.956 68.5423 136.91 68.9573 136.846 69.4558C136.782 69.9543 136.729 70.3771 136.729 70.3953C136.728 70.4136 136.454 70.3799 136.12 70.3204C135.786 70.261 135.403 70.2247 135.269 70.2398C134.551 70.3206 134.058 71.1194 134.205 71.9647C134.248 72.2121 134.34 72.4021 134.683 72.9506C134.917 73.3243 135.108 73.6396 135.108 73.6512C135.108 73.6628 134.821 73.9296 134.47 74.244L133.831 74.8158L133.41 74.1531C132.865 73.2974 132.677 73.1459 132.158 73.1477C131.726 73.1493 131.492 73.2731 131.229 73.6401C131.026 73.9227 130.946 74.23 130.865 75.0323C130.833 75.3508 130.791 75.6414 130.772 75.6781C130.746 75.7282 130.547 75.7128 129.969 75.6156C129.084 75.4668 129.162 75.5675 129.273 74.709C129.38 73.88 129.367 73.5819 129.211 73.225C128.974 72.6846 128.526 72.3926 128.028 72.4536C127.715 72.4917 127.578 72.5789 126.97 73.1247L126.473 73.5711L126.003 72.8235C125.745 72.4122 125.533 72.058 125.533 72.0363C125.533 72.0146 125.769 71.7847 126.056 71.5256C126.344 71.2664 126.633 70.9604 126.7 70.8454C127.102 70.1534 126.928 69.1938 126.324 68.7715C126.167 68.6616 125.955 68.5986 125.433 68.5064C125.056 68.4399 124.741 68.3792 124.733 68.3717C124.709 68.3492 124.926 66.5589 124.957 66.5152C124.973 66.4932 125.275 66.5261 125.629 66.5883C126.486 66.7391 126.788 66.6698 127.149 66.2388C127.369 65.9766 127.45 65.7491 127.476 65.3294C127.505 64.8461 127.42 64.6151 126.939 63.8573C126.739 63.5415 126.582 63.2602 126.59 63.2322C126.605 63.1831 127.798 62.0947 127.837 62.0947C127.847 62.0947 128.041 62.3886 128.267 62.7477C128.493 63.1069 128.758 63.4629 128.856 63.539C129.362 63.9317 129.959 63.845 130.402 63.3146C130.617 63.0576 130.696 62.7809 130.798 61.9242C130.841 61.5648 130.883 61.2428 130.892 61.2086C130.903 61.1656 131.146 61.1876 131.682 61.28C132.108 61.3535 132.465 61.4238 132.476 61.4363ZM114.741 63.0349C114.618 63.2394 114.526 63.4142 114.536 63.4232C114.706 63.5816 117.276 65.7491 117.315 65.7667C117.363 65.7888 117.845 65.0611 117.808 65.0222C117.697 64.906 115.029 62.6629 115.001 62.6629C114.98 62.6629 114.863 62.8303 114.741 63.0349ZM130.171 64.6797C129.187 64.9351 128.376 65.6948 127.944 66.7677C127.692 67.3936 127.614 67.7986 127.616 68.4871C127.618 69.5214 127.932 70.4121 128.56 71.1656C128.881 71.5509 129.021 71.6708 129.395 71.8845C129.985 72.2213 130.258 72.2949 130.892 72.2876C131.318 72.2827 131.488 72.254 131.797 72.1336C132.682 71.7899 133.347 71.0941 133.755 70.0839C134.358 68.5921 134.042 66.7153 132.998 65.5869C132.64 65.2002 131.977 64.7956 131.512 64.6798C131.104 64.5784 130.562 64.5783 130.171 64.6797ZM122.353 65.7592C121.215 66.7463 120.412 68.2367 120.133 69.8792C119.69 72.4817 120.586 75.1715 122.413 76.7282C122.623 76.9067 123.116 77.2385 123.51 77.4655C124.166 77.8437 124.252 77.9116 124.542 78.2782C124.906 78.7387 125.135 79.2553 125.207 79.7822C125.301 80.4602 125.246 80.3911 125.691 80.3911H126.085L126.052 80.0076C126.007 79.4846 125.968 79.2882 125.821 78.8551C125.653 78.361 125.4 77.9154 125.065 77.5259C124.7 77.1017 124.526 76.9668 123.871 76.5982C123.158 76.1972 122.766 75.8915 122.327 75.3934C121.521 74.4808 120.994 73.2093 120.863 71.8662C120.668 69.8672 121.404 67.8075 122.735 66.626C122.912 66.4691 123.056 66.3201 123.056 66.2949C123.056 66.2534 122.677 65.504 122.656 65.504C122.651 65.504 122.514 65.6188 122.353 65.7592ZM131.407 65.6454C132.268 65.9131 132.956 66.7259 133.185 67.7484C133.396 68.6873 133.139 69.7665 132.532 70.4907C131.579 71.6267 130.087 71.6198 129.127 70.4748C128.17 69.3325 128.177 67.547 129.144 66.4186C129.774 65.6833 130.609 65.3977 131.407 65.6454ZM115.45 67.8531C114.607 68.108 113.904 68.3327 113.888 68.3522C113.856 68.3915 113.999 69.1422 114.052 69.2141C114.078 69.2481 116.92 68.447 117.228 68.3188C117.3 68.289 117.113 67.3769 117.037 67.3843C117.007 67.3872 116.293 67.5982 115.45 67.8531ZM118.311 73.796C118.353 73.9657 118.388 74.1102 118.388 74.117C118.388 74.1239 118.276 74.1607 118.138 74.1989C117.164 74.4693 116.381 75.532 116.266 76.7379C116.17 77.7522 116.649 78.9188 117.377 79.4455C118.533 80.2807 119.957 79.9238 120.699 78.613L120.853 78.3405L120.99 78.4738C121.065 78.5472 121.269 78.7266 121.443 78.8725C121.82 79.1885 122.104 79.5588 122.246 79.9193L122.35 80.1823L121.919 80.6961L121.488 81.2101L121.007 80.8222C120.743 80.6088 120.445 80.4097 120.346 80.3797C120.011 80.2783 119.635 80.4963 119.466 80.8901C119.429 80.9751 119.35 81.3323 119.289 81.6838L119.179 82.3231H118.695H118.211L118.13 81.8416C117.958 80.8055 117.816 80.5288 117.388 80.3911C117.111 80.3022 116.924 80.3829 116.379 80.827L115.908 81.2106L115.542 80.7742L115.176 80.3378L115.5 79.7722C115.678 79.4611 115.843 79.1087 115.866 78.9891C115.957 78.5117 115.699 78.0122 115.286 77.8658C115.157 77.82 114.869 77.7395 114.647 77.687L114.244 77.5913V77.0104V76.4296L114.779 76.3023C115.074 76.2323 115.371 76.1402 115.441 76.0975C115.747 75.9086 115.942 75.4274 115.868 75.0417C115.846 74.9278 115.686 74.5864 115.512 74.283C115.339 73.9796 115.197 73.7142 115.197 73.6932C115.197 73.6721 115.356 73.4657 115.552 73.2342L115.907 72.8135L116.408 73.2187C116.949 73.6554 117.126 73.7288 117.416 73.6353C117.735 73.5322 117.955 73.214 118.031 72.7487C118.068 72.5241 118.069 72.5271 118.151 73.0044C118.196 73.27 118.268 73.6262 118.311 73.796ZM118.847 75.4051C119.124 76.0578 119.433 76.5899 119.955 77.3152L120.216 77.6769L120.104 77.9295C119.949 78.2768 119.58 78.6562 119.255 78.8026C119.035 78.9015 118.911 78.9202 118.602 78.9006C117.965 78.86 117.516 78.4959 117.234 77.7885C117.101 77.4555 117.092 77.3955 117.112 76.9362C117.127 76.5852 117.164 76.3666 117.238 76.1818C117.48 75.5817 118.035 75.1256 118.542 75.1116C118.71 75.107 118.727 75.1232 118.847 75.4051ZM133.393 78.4876V78.9706H134.798H136.204V78.4876V78.0046H134.798H133.393V78.4876ZM132.965 80.878C132.825 81.0844 132.731 81.2699 132.755 81.2949C132.779 81.3197 133.321 81.8597 133.961 82.4949L135.125 83.6497L135.377 83.3131C135.516 83.128 135.63 82.958 135.631 82.9354C135.632 82.9041 133.722 80.977 133.293 80.5765C133.229 80.5167 133.181 80.5613 132.965 80.878ZM125.295 82.0674V82.7776H125.7H126.105V82.0674V81.3571H125.7H125.295V82.0674ZM130.964 83.514V85.2209H131.369H131.775L131.762 83.5305L131.75 81.8401L131.357 81.8236L130.964 81.8071V83.514ZM127.296 85.1925V85.6755H125.676H124.057V85.2304C124.057 84.9856 124.071 84.7682 124.088 84.7474C124.106 84.7266 124.835 84.7095 125.708 84.7095H127.296V85.1925ZM127.296 86.9928C127.296 87.4303 127.173 87.753 126.931 87.9483C126.759 88.0876 126.735 88.0907 125.728 88.1061C124.571 88.1239 124.496 88.1042 124.235 87.7132C124.128 87.5538 124.09 87.4278 124.07 87.163C124.027 86.5954 123.883 86.6415 125.699 86.6415H127.296V86.9928Z" fill="#4A3AFF"/>
<rect x="227" y="118" width="243" height="225" rx="20" fill="white"/>
<path fill-rule="evenodd" clip-rule="evenodd" d="M337.25 217.5C337.25 211.287 342.287 206.25 348.5 206.25C354.713 206.25 359.75 211.287 359.75 217.5C359.75 223.713 354.713 228.75 348.5 228.75C342.287 228.75 337.25 223.713 337.25 217.5ZM348.5 208.5C346.113 208.5 343.824 209.448 342.136 211.136C340.448 212.824 339.5 215.113 339.5 217.5C339.5 219.887 340.448 222.176 342.136 223.864C343.824 225.552 346.113 226.5 348.5 226.5C350.887 226.5 353.176 225.552 354.864 223.864C356.552 222.176 357.5 219.887 357.5 217.5C357.5 215.113 356.552 212.824 354.864 211.136C353.176 209.448 350.887 208.5 348.5 208.5Z" fill="#4A3AFF"/>
<path fill-rule="evenodd" clip-rule="evenodd" d="M349.625 211.875C349.625 211.577 349.506 211.29 349.295 211.08C349.085 210.869 348.798 210.75 348.5 210.75C348.202 210.75 347.915 210.869 347.705 211.08C347.494 211.29 347.375 211.577 347.375 211.875V216.375H342.875C342.577 216.375 342.29 216.494 342.08 216.705C341.869 216.915 341.75 217.202 341.75 217.5C341.75 217.798 341.869 218.085 342.08 218.295C342.29 218.506 342.577 218.625 342.875 218.625H347.375V223.125C347.375 223.423 347.494 223.71 347.705 223.92C347.915 224.131 348.202 224.25 348.5 224.25C348.798 224.25 349.085 224.131 349.295 223.92C349.506 223.71 349.625 223.423 349.625 223.125V218.625H354.125C354.423 218.625 354.71 218.506 354.92 218.295C355.131 218.085 355.25 217.798 355.25 217.5C355.25 217.202 355.131 216.915 354.92 216.705C354.71 216.494 354.423 216.375 354.125 216.375H349.625V211.875Z" fill="#4A3AFF"/>
<path d="M277.518 264.114C277.518 263.162 277.737 262.308 278.176 261.552C278.624 260.796 279.226 260.208 279.982 259.788C280.747 259.359 281.583 259.144 282.488 259.144C283.524 259.144 284.443 259.401 285.246 259.914C286.058 260.418 286.646 261.137 287.01 262.07H285.092C284.84 261.557 284.49 261.174 284.042 260.922C283.594 260.67 283.076 260.544 282.488 260.544C281.844 260.544 281.27 260.689 280.766 260.978C280.262 261.267 279.865 261.683 279.576 262.224C279.296 262.765 279.156 263.395 279.156 264.114C279.156 264.833 279.296 265.463 279.576 266.004C279.865 266.545 280.262 266.965 280.766 267.264C281.27 267.553 281.844 267.698 282.488 267.698C283.076 267.698 283.594 267.572 284.042 267.32C284.49 267.068 284.84 266.685 285.092 266.172H287.01C286.646 267.105 286.058 267.824 285.246 268.328C284.443 268.832 283.524 269.084 282.488 269.084C281.573 269.084 280.738 268.874 279.982 268.454C279.226 268.025 278.624 267.432 278.176 266.676C277.737 265.92 277.518 265.066 277.518 264.114ZM290.474 262.406C290.707 262.014 291.015 261.711 291.398 261.496C291.79 261.272 292.252 261.16 292.784 261.16V262.812H292.378C291.753 262.812 291.277 262.971 290.95 263.288C290.633 263.605 290.474 264.156 290.474 264.94V269H288.878V261.286H290.474V262.406ZM301.321 264.954C301.321 265.243 301.303 265.505 301.265 265.738H295.371C295.418 266.354 295.647 266.849 296.057 267.222C296.468 267.595 296.972 267.782 297.569 267.782C298.428 267.782 299.035 267.423 299.389 266.704H301.111C300.878 267.413 300.453 267.997 299.837 268.454C299.231 268.902 298.475 269.126 297.569 269.126C296.832 269.126 296.169 268.963 295.581 268.636C295.003 268.3 294.545 267.833 294.209 267.236C293.883 266.629 293.719 265.929 293.719 265.136C293.719 264.343 293.878 263.647 294.195 263.05C294.522 262.443 294.975 261.977 295.553 261.65C296.141 261.323 296.813 261.16 297.569 261.16C298.297 261.16 298.946 261.319 299.515 261.636C300.085 261.953 300.528 262.401 300.845 262.98C301.163 263.549 301.321 264.207 301.321 264.954ZM299.655 264.45C299.646 263.862 299.436 263.391 299.025 263.036C298.615 262.681 298.106 262.504 297.499 262.504C296.949 262.504 296.477 262.681 296.085 263.036C295.693 263.381 295.46 263.853 295.385 264.45H299.655ZM302.36 265.108C302.36 264.333 302.518 263.647 302.836 263.05C303.162 262.453 303.601 261.991 304.152 261.664C304.712 261.328 305.328 261.16 306 261.16C306.606 261.16 307.134 261.281 307.582 261.524C308.039 261.757 308.403 262.051 308.674 262.406V261.286H310.284V269H308.674V267.852C308.403 268.216 308.034 268.519 307.568 268.762C307.101 269.005 306.569 269.126 305.972 269.126C305.309 269.126 304.702 268.958 304.152 268.622C303.601 268.277 303.162 267.801 302.836 267.194C302.518 266.578 302.36 265.883 302.36 265.108ZM308.674 265.136C308.674 264.604 308.562 264.142 308.338 263.75C308.123 263.358 307.838 263.059 307.484 262.854C307.129 262.649 306.746 262.546 306.336 262.546C305.925 262.546 305.542 262.649 305.188 262.854C304.833 263.05 304.544 263.344 304.32 263.736C304.105 264.119 303.998 264.576 303.998 265.108C303.998 265.64 304.105 266.107 304.32 266.508C304.544 266.909 304.833 267.217 305.188 267.432C305.552 267.637 305.934 267.74 306.336 267.74C306.746 267.74 307.129 267.637 307.484 267.432C307.838 267.227 308.123 266.928 308.338 266.536C308.562 266.135 308.674 265.668 308.674 265.136ZM314.242 262.588V266.858C314.242 267.147 314.307 267.357 314.438 267.488C314.578 267.609 314.811 267.67 315.138 267.67H316.118V269H314.858C314.139 269 313.589 268.832 313.206 268.496C312.823 268.16 312.632 267.614 312.632 266.858V262.588H311.722V261.286H312.632V259.368H314.242V261.286H316.118V262.588H314.242ZM324.659 264.954C324.659 265.243 324.64 265.505 324.603 265.738H318.709C318.756 266.354 318.984 266.849 319.395 267.222C319.806 267.595 320.31 267.782 320.907 267.782C321.766 267.782 322.372 267.423 322.727 266.704H324.449C324.216 267.413 323.791 267.997 323.175 268.454C322.568 268.902 321.812 269.126 320.907 269.126C320.17 269.126 319.507 268.963 318.919 268.636C318.34 268.3 317.883 267.833 317.547 267.236C317.22 266.629 317.057 265.929 317.057 265.136C317.057 264.343 317.216 263.647 317.533 263.05C317.86 262.443 318.312 261.977 318.891 261.65C319.479 261.323 320.151 261.16 320.907 261.16C321.635 261.16 322.284 261.319 322.853 261.636C323.422 261.953 323.866 262.401 324.183 262.98C324.5 263.549 324.659 264.207 324.659 264.954ZM322.993 264.45C322.984 263.862 322.774 263.391 322.363 263.036C321.952 262.681 321.444 262.504 320.837 262.504C320.286 262.504 319.815 262.681 319.423 263.036C319.031 263.381 318.798 263.853 318.723 264.45H322.993ZM329.334 265.108C329.334 264.333 329.493 263.647 329.81 263.05C330.137 262.453 330.576 261.991 331.126 261.664C331.686 261.328 332.302 261.16 332.974 261.16C333.581 261.16 334.108 261.281 334.556 261.524C335.014 261.757 335.378 262.051 335.648 262.406V261.286H337.258V269H335.648V267.852C335.378 268.216 335.009 268.519 334.542 268.762C334.076 269.005 333.544 269.126 332.946 269.126C332.284 269.126 331.677 268.958 331.126 268.622C330.576 268.277 330.137 267.801 329.81 267.194C329.493 266.578 329.334 265.883 329.334 265.108ZM335.648 265.136C335.648 264.604 335.536 264.142 335.312 263.75C335.098 263.358 334.813 263.059 334.458 262.854C334.104 262.649 333.721 262.546 333.31 262.546C332.9 262.546 332.517 262.649 332.162 262.854C331.808 263.05 331.518 263.344 331.294 263.736C331.08 264.119 330.972 264.576 330.972 265.108C330.972 265.64 331.08 266.107 331.294 266.508C331.518 266.909 331.808 267.217 332.162 267.432C332.526 267.637 332.909 267.74 333.31 267.74C333.721 267.74 334.104 267.637 334.458 267.432C334.813 267.227 335.098 266.928 335.312 266.536C335.536 266.135 335.648 265.668 335.648 265.136ZM346.883 261.16C347.49 261.16 348.031 261.286 348.507 261.538C348.993 261.79 349.371 262.163 349.641 262.658C349.912 263.153 350.047 263.75 350.047 264.45V269H348.465V264.688C348.465 263.997 348.293 263.47 347.947 263.106C347.602 262.733 347.131 262.546 346.533 262.546C345.936 262.546 345.46 262.733 345.105 263.106C344.76 263.47 344.587 263.997 344.587 264.688V269H342.991V261.286H344.587V262.168C344.849 261.851 345.18 261.603 345.581 261.426C345.992 261.249 346.426 261.16 346.883 261.16ZM359.153 264.954C359.153 265.243 359.135 265.505 359.097 265.738H353.203C353.25 266.354 353.479 266.849 353.889 267.222C354.3 267.595 354.804 267.782 355.401 267.782C356.26 267.782 356.867 267.423 357.221 266.704H358.943C358.71 267.413 358.285 267.997 357.669 268.454C357.063 268.902 356.307 269.126 355.401 269.126C354.664 269.126 354.001 268.963 353.413 268.636C352.835 268.3 352.377 267.833 352.041 267.236C351.715 266.629 351.551 265.929 351.551 265.136C351.551 264.343 351.71 263.647 352.027 263.05C352.354 262.443 352.807 261.977 353.385 261.65C353.973 261.323 354.645 261.16 355.401 261.16C356.129 261.16 356.778 261.319 357.347 261.636C357.917 261.953 358.36 262.401 358.677 262.98C358.995 263.549 359.153 264.207 359.153 264.954ZM357.487 264.45C357.478 263.862 357.268 263.391 356.857 263.036C356.447 262.681 355.938 262.504 355.331 262.504C354.781 262.504 354.309 262.681 353.917 263.036C353.525 263.381 353.292 263.853 353.217 264.45H357.487ZM371.084 261.286L368.69 269H367.01L365.456 263.302L363.902 269H362.222L359.814 261.286H361.438L363.048 267.488L364.686 261.286H366.352L367.92 267.46L369.516 261.286H371.084ZM377.509 262.42C377.78 262.065 378.149 261.767 378.615 261.524C379.082 261.281 379.609 261.16 380.197 261.16C380.869 261.16 381.481 261.328 382.031 261.664C382.591 261.991 383.03 262.453 383.347 263.05C383.665 263.647 383.823 264.333 383.823 265.108C383.823 265.883 383.665 266.578 383.347 267.194C383.03 267.801 382.591 268.277 382.031 268.622C381.481 268.958 380.869 269.126 380.197 269.126C379.609 269.126 379.087 269.009 378.629 268.776C378.172 268.533 377.799 268.235 377.509 267.88V272.668H375.913V261.286H377.509V262.42ZM382.199 265.108C382.199 264.576 382.087 264.119 381.863 263.736C381.649 263.344 381.359 263.05 380.995 262.854C380.641 262.649 380.258 262.546 379.847 262.546C379.446 262.546 379.063 262.649 378.699 262.854C378.345 263.059 378.055 263.358 377.831 263.75C377.617 264.142 377.509 264.604 377.509 265.136C377.509 265.668 377.617 266.135 377.831 266.536C378.055 266.928 378.345 267.227 378.699 267.432C379.063 267.637 379.446 267.74 379.847 267.74C380.258 267.74 380.641 267.637 380.995 267.432C381.359 267.217 381.649 266.909 381.863 266.508C382.087 266.107 382.199 265.64 382.199 265.108ZM386.998 262.406C387.231 262.014 387.539 261.711 387.922 261.496C388.314 261.272 388.776 261.16 389.308 261.16V262.812H388.902C388.276 262.812 387.8 262.971 387.474 263.288C387.156 263.605 386.998 264.156 386.998 264.94V269H385.402V261.286H386.998V262.406ZM394.121 269.126C393.393 269.126 392.735 268.963 392.147 268.636C391.559 268.3 391.097 267.833 390.761 267.236C390.425 266.629 390.257 265.929 390.257 265.136C390.257 264.352 390.429 263.657 390.775 263.05C391.12 262.443 391.591 261.977 392.189 261.65C392.786 261.323 393.453 261.16 394.191 261.16C394.928 261.16 395.595 261.323 396.193 261.65C396.79 261.977 397.261 262.443 397.607 263.05C397.952 263.657 398.125 264.352 398.125 265.136C398.125 265.92 397.947 266.615 397.593 267.222C397.238 267.829 396.753 268.3 396.137 268.636C395.53 268.963 394.858 269.126 394.121 269.126ZM394.121 267.74C394.531 267.74 394.914 267.642 395.269 267.446C395.633 267.25 395.927 266.956 396.151 266.564C396.375 266.172 396.487 265.696 396.487 265.136C396.487 264.576 396.379 264.105 396.165 263.722C395.95 263.33 395.665 263.036 395.311 262.84C394.956 262.644 394.573 262.546 394.163 262.546C393.752 262.546 393.369 262.644 393.015 262.84C392.669 263.036 392.394 263.33 392.189 263.722C391.983 264.105 391.881 264.576 391.881 265.136C391.881 265.967 392.091 266.611 392.511 267.068C392.94 267.516 393.477 267.74 394.121 267.74ZM400.514 260.264C400.225 260.264 399.982 260.166 399.786 259.97C399.59 259.774 399.492 259.531 399.492 259.242C399.492 258.953 399.59 258.71 399.786 258.514C399.982 258.318 400.225 258.22 400.514 258.22C400.794 258.22 401.032 258.318 401.228 258.514C401.424 258.71 401.522 258.953 401.522 259.242C401.522 259.531 401.424 259.774 401.228 259.97C401.032 260.166 400.794 260.264 400.514 260.264ZM401.298 270.512C401.298 271.268 401.107 271.814 400.724 272.15C400.351 272.495 399.805 272.668 399.086 272.668H398.26V271.324H398.806C399.133 271.324 399.362 271.259 399.492 271.128C399.632 271.007 399.702 270.801 399.702 270.512V261.286H401.298V270.512ZM410.464 264.954C410.464 265.243 410.445 265.505 410.408 265.738H404.514C404.56 266.354 404.789 266.849 405.2 267.222C405.61 267.595 406.114 267.782 406.712 267.782C407.57 267.782 408.177 267.423 408.532 266.704H410.254C410.02 267.413 409.596 267.997 408.98 268.454C408.373 268.902 407.617 269.126 406.712 269.126C405.974 269.126 405.312 268.963 404.724 268.636C404.145 268.3 403.688 267.833 403.352 267.236C403.025 266.629 402.862 265.929 402.862 265.136C402.862 264.343 403.02 263.647 403.338 263.05C403.664 262.443 404.117 261.977 404.696 261.65C405.284 261.323 405.956 261.16 406.712 261.16C407.44 261.16 408.088 261.319 408.658 261.636C409.227 261.953 409.67 262.401 409.988 262.98C410.305 263.549 410.464 264.207 410.464 264.954ZM408.798 264.45C408.788 263.862 408.578 263.391 408.168 263.036C407.757 262.681 407.248 262.504 406.642 262.504C406.091 262.504 405.62 262.681 405.228 263.036C404.836 263.381 404.602 263.853 404.528 264.45H408.798ZM411.502 265.136C411.502 264.343 411.661 263.647 411.978 263.05C412.305 262.443 412.753 261.977 413.322 261.65C413.892 261.323 414.545 261.16 415.282 261.16C416.216 261.16 416.986 261.384 417.592 261.832C418.208 262.271 418.624 262.901 418.838 263.722H417.116C416.976 263.339 416.752 263.041 416.444 262.826C416.136 262.611 415.749 262.504 415.282 262.504C414.629 262.504 414.106 262.737 413.714 263.204C413.332 263.661 413.14 264.305 413.14 265.136C413.14 265.967 413.332 266.615 413.714 267.082C414.106 267.549 414.629 267.782 415.282 267.782C416.206 267.782 416.818 267.376 417.116 266.564H418.838C418.614 267.348 418.194 267.973 417.578 268.44C416.962 268.897 416.197 269.126 415.282 269.126C414.545 269.126 413.892 268.963 413.322 268.636C412.753 268.3 412.305 267.833 411.978 267.236C411.661 266.629 411.502 265.929 411.502 265.136ZM422.291 262.588V266.858C422.291 267.147 422.356 267.357 422.487 267.488C422.627 267.609 422.86 267.67 423.187 267.67H424.167V269H422.907C422.188 269 421.638 268.832 421.255 268.496C420.872 268.16 420.681 267.614 420.681 266.858V262.588H419.771V261.286H420.681V259.368H422.291V261.286H424.167V262.588H422.291Z" fill="#4A3AFF"/>
</svg>
