<svg width="76" height="74" viewBox="0 0 76 74" fill="none" xmlns="http://www.w3.org/2000/svg">
<g id="iconspace_Bill Copy_25px">
<g id="pajamas:issue-type-maintenance">
<path id="Vector" fill-rule="evenodd" clip-rule="evenodd" d="M52.0567 11.4684C50.4302 11.4676 48.8261 11.8399 47.373 12.5554C45.9199 13.2709 44.6583 14.3097 43.6893 15.5886C42.7203 16.8675 42.0709 18.3508 41.7931 19.9197C41.5153 21.4885 41.6169 23.0993 42.0897 24.6228L42.6912 26.5706L41.2244 28.0111L12.2857 56.3356C11.7089 56.9002 11.3849 57.666 11.3849 58.4646C11.3849 59.2631 11.7089 60.0289 12.2857 60.5935C12.8625 61.1582 13.6448 61.4754 14.4605 61.4754C15.2762 61.4754 16.0585 61.1582 16.6353 60.5935L45.5693 32.26L47.0408 30.8195L49.0305 31.4084C50.9637 31.9848 53.0264 31.998 54.9671 31.4464C56.9079 30.8948 58.6426 29.8022 59.9599 28.3019C61.2771 26.8016 62.1198 24.9585 62.3852 22.9973C62.6506 21.0362 62.3273 19.0418 61.4546 17.2575L54.5138 24.0566C54.1938 24.3812 53.811 24.6402 53.3876 24.8185C52.9643 24.9967 52.509 25.0906 52.0482 25.0948C51.5874 25.0989 51.1304 25.0131 50.7038 24.8425C50.2772 24.6719 49.8896 24.4198 49.5636 24.101C49.2376 23.7822 48.9797 23.403 48.805 22.9855C48.6303 22.5681 48.5423 22.1208 48.5461 21.6697C48.5499 21.2186 48.6454 20.7728 48.8271 20.3582C49.0088 19.9436 49.273 19.5686 49.6043 19.2551L56.5451 12.4605C55.1441 11.8033 53.6102 11.4673 52.0567 11.4684ZM34.7046 21.6604C34.7049 18.1774 35.7989 14.7788 37.8383 11.9248C39.8778 9.07092 42.7641 6.89969 46.1063 5.70531C49.4484 4.51092 53.0848 4.35113 56.5228 5.24758C59.9609 6.14403 63.0343 8.05338 65.3267 10.717C67.6192 13.3805 69.0198 16.6696 69.3389 20.1385C69.6579 23.6074 68.88 27.0884 67.1105 30.1101C65.341 33.1317 62.6655 35.5478 59.4463 37.0311C56.2272 38.5143 52.6201 38.993 49.1138 38.4023L46.5549 40.9118L50.8999 45.1698L53.0747 43.0408L55.5271 40.64L57.9795 43.0408L66.6556 51.5341C67.6088 52.439 68.3686 53.5206 68.8908 54.7157C69.413 55.9109 69.6871 57.1958 69.6973 58.4956C69.7074 59.7955 69.4534 61.0843 68.9499 62.2871C68.4465 63.49 67.7037 64.5828 66.7647 65.5019C65.8258 66.4211 64.7095 67.1483 63.4808 67.6411C62.2521 68.1339 60.9355 68.3826 59.6077 68.3727C58.2798 68.3628 56.9673 68.0944 55.7464 67.5832C54.5256 67.072 53.4208 66.3282 52.4963 65.3951L43.8202 56.9018L41.3678 54.501L43.8202 52.1003L45.995 49.9713L41.6454 45.7133L21.5402 65.3951C20.6157 66.3282 19.5109 67.072 18.29 67.5832C17.0691 68.0944 15.7566 68.3628 14.4288 68.3727C13.101 68.3826 11.7844 68.1339 10.5557 67.6411C9.32695 67.1483 8.21064 66.4211 7.2717 65.5019C6.33276 64.5828 5.58995 63.49 5.0865 62.2871C4.58304 61.0843 4.329 59.7955 4.33916 58.4956C4.34932 57.1958 4.62347 55.9109 5.14566 54.7157C5.66785 53.5206 6.42766 52.439 7.38085 51.5341L27.4815 31.8523L16.1957 20.7997L13.3407 23.5946L10.9947 20.1474L6.36749 13.3528L4.7896 11.0336L6.80245 9.06767L9.11606 6.8028L11.1243 4.83236L13.4934 6.377L20.4342 10.9067L23.9556 13.2033L21.1052 15.9982L32.391 27.0508L34.9545 24.5413C34.7881 23.5896 34.7045 22.6259 34.7046 21.6604ZM55.5271 50.2431L61.7507 56.3356C62.3275 56.9002 62.6516 57.666 62.6516 58.4646C62.6516 59.2631 62.3275 60.0289 61.7507 60.5935C61.1739 61.1582 60.3916 61.4754 59.5759 61.4754C58.7602 61.4754 57.9779 61.1582 57.4011 60.5935L51.1822 54.501L55.5271 50.2431Z" fill="#9747FF"/>
</g>
</g>
</svg>
