<svg width="66" height="66" viewBox="0 0 66 66" fill="none" xmlns="http://www.w3.org/2000/svg">
<g id="iconspace_Bill Copy_25px">
<g id="octicon:project-roadmap-16" clip-path="url(#clip0_89_1475)">
<path id="Vector" d="M23.875 31.5C23.3777 31.5 22.9008 31.6975 22.5492 32.0492C22.1975 32.4008 22 32.8777 22 33.375C22 33.8723 22.1975 34.3492 22.5492 34.7008C22.9008 35.0525 23.3777 35.25 23.875 35.25H35.125C35.6223 35.25 36.0992 35.0525 36.4508 34.7008C36.8025 34.3492 37 33.8723 37 33.375C37 32.8777 36.8025 32.4008 36.4508 32.0492C36.0992 31.6975 35.6223 31.5 35.125 31.5H23.875ZM24.5 25.875C24.5 25.3777 24.6975 24.9008 25.0492 24.5492C25.4008 24.1975 25.8777 24 26.375 24H40.125C40.6223 24 41.0992 24.1975 41.4508 24.5492C41.8025 24.9008 42 25.3777 42 25.875C42 26.3723 41.8025 26.8492 41.4508 27.2008C41.0992 27.5525 40.6223 27.75 40.125 27.75H26.375C25.8777 27.75 25.4008 27.5525 25.0492 27.2008C24.6975 26.8492 24.5 26.3723 24.5 25.875ZM28.875 39C28.3777 39 27.9008 39.1975 27.5492 39.5492C27.1975 39.9008 27 40.3777 27 40.875C27 41.3723 27.1975 41.8492 27.5492 42.2008C27.9008 42.5525 28.3777 42.75 28.875 42.75H40.125C40.6223 42.75 41.0992 42.5525 41.4508 42.2008C41.8025 41.8492 42 41.3723 42 40.875C42 40.3777 41.8025 39.9008 41.4508 39.5492C41.0992 39.1975 40.6223 39 40.125 39H28.875Z" fill="#9747FF"/>
<path id="Vector_2" d="M12 18.375C12 15.96 13.96 14 16.375 14H47.625C50.04 14 52 15.96 52 18.375V49.625C52 50.7853 51.5391 51.8981 50.7186 52.7186C49.8981 53.5391 48.7853 54 47.625 54H16.375C15.2147 54 14.1019 53.5391 13.2814 52.7186C12.4609 51.8981 12 50.7853 12 49.625V18.375ZM16.375 17.75C16.2092 17.75 16.0503 17.8158 15.9331 17.9331C15.8158 18.0503 15.75 18.2092 15.75 18.375V49.625C15.75 49.97 16.03 50.25 16.375 50.25H47.625C47.7908 50.25 47.9497 50.1842 48.0669 50.0669C48.1842 49.9497 48.25 49.7908 48.25 49.625V18.375C48.25 18.2092 48.1842 18.0503 48.0669 17.9331C47.9497 17.8158 47.7908 17.75 47.625 17.75H16.375Z" fill="#9747FF"/>
</g>
</g>
<defs>
<clipPath id="clip0_89_1475">
<rect width="20" height="20" fill="white" transform="matrix(2 0 0 2 12 14)"/>
</clipPath>
</defs>
</svg>
