<svg width="27" height="26" viewBox="0 0 27 26" fill="none" xmlns="http://www.w3.org/2000/svg">
<path d="M13.75 24.75C20.2393 24.75 25.5 19.4893 25.5 13C25.5 6.51065 20.2393 1.25 13.75 1.25C7.26065 1.25 2 6.51065 2 13C2 19.4893 7.26065 24.75 13.75 24.75Z" fill="white" stroke="#1B1B1B" stroke-width="2.5" stroke-linecap="round" stroke-linejoin="round"/>
<path d="M18.4501 9.25124C17.9225 8.17611 16.3392 6.29553 13.1726 6.56401C10.006 6.83309 7.63072 9.78939 7.8951 13.5511C8.15947 17.3135 11.0617 19.4632 13.7002 19.4632C16.8668 19.4632 18.4501 16.8834 18.4501 16.8834" fill="white"/>
<path d="M18.4501 9.25124C17.9225 8.17611 16.3392 6.29553 13.1726 6.56401C10.006 6.83309 7.63072 9.78939 7.8951 13.5511C8.15947 17.3135 11.0617 19.4632 13.7002 19.4632C16.8668 19.4632 18.4501 16.8834 18.4501 16.8834" stroke="#1B1B1B" stroke-width="2.5" stroke-linecap="round" stroke-linejoin="round"/>
</svg>
