<svg width="40" height="40" viewBox="0 0 40 40" fill="none" xmlns="http://www.w3.org/2000/svg">
<rect x="1.23828" y="38.5786" width="38" height="38" rx="19" transform="rotate(-90 1.23828 38.5786)" fill="white"/>
<rect x="1.23828" y="38.5786" width="38" height="38" rx="19" transform="rotate(-90 1.23828 38.5786)" stroke="#8704C5"/>
<path d="M18.7315 26.0741C18.8278 25.9781 18.9042 25.8641 18.9563 25.7385C19.0085 25.6129 19.0353 25.4783 19.0353 25.3423C19.0353 25.2063 19.0085 25.0717 18.9563 24.9461C18.9042 24.8205 18.8278 24.7065 18.7315 24.6105L14.2984 20.1774L26.9544 20.1774C27.2284 20.1774 27.4912 20.0686 27.6849 19.8748C27.8787 19.6811 27.9875 19.4183 27.9875 19.1443C27.9875 18.8703 27.8787 18.6075 27.6849 18.4138C27.4912 18.22 27.2284 18.1112 26.9544 18.1112L14.2984 18.1112L18.7315 13.6764C18.9256 13.4823 19.0346 13.2191 19.0346 12.9446C19.0346 12.6701 18.9256 12.4069 18.7315 12.2128C18.5374 12.0187 18.2741 11.9097 17.9997 11.9097C17.7252 11.9097 17.4619 12.0187 17.2678 12.2128L11.069 18.4116C10.9727 18.5076 10.8963 18.6217 10.8441 18.7472C10.792 18.8728 10.7651 19.0075 10.7651 19.1434C10.7651 19.2794 10.792 19.4141 10.8441 19.5396C10.8963 19.6652 10.9727 19.7793 11.069 19.8753L17.2678 26.0741C17.3638 26.1704 17.4779 26.2468 17.6035 26.299C17.729 26.3511 17.8637 26.378 17.9997 26.378C18.1356 26.378 18.2703 26.3511 18.3959 26.299C18.5214 26.2468 18.6355 26.1704 18.7315 26.0741Z" fill="#8704C5"/>
</svg>
