<svg width="15" height="14" viewBox="0 0 15 14" fill="none" xmlns="http://www.w3.org/2000/svg">
<path d="M10.5704 4.17079L10.4644 4.06472L10.3583 4.17079L6.28125 8.24783L4.64171 6.60829L4.53564 6.50222L4.42958 6.60829L3.85829 7.17958L3.75222 7.28564L3.85829 7.39171L6.17518 9.7086L6.28125 9.81467L6.38732 9.7086L11.1417 4.95421L11.2478 4.84814L11.1417 4.74208L10.5704 4.17079ZM7.5 0.349996L7.49896 0.350004C6.8773 0.354321 6.28638 0.434213 5.72677 0.590384C5.16863 0.746143 4.64052 0.969058 4.14275 1.25906C3.64508 1.54901 3.19468 1.89544 2.79188 2.29823C2.38929 2.70083 2.04294 3.14893 1.753 3.64226C1.46262 4.13635 1.23962 4.66697 1.08388 5.23369C0.927843 5.80148 0.85 6.3904 0.849996 7L0.850004 7.00104C0.854321 7.6227 0.934213 8.21362 1.09038 8.77323C1.24614 9.33137 1.46906 9.85948 1.75906 10.3572C2.04901 10.8549 2.39544 11.3053 2.79823 11.7081C3.20083 12.1107 3.64893 12.4571 4.14226 12.747C4.63635 13.0374 5.16697 13.2604 5.73369 13.4161C6.30148 13.5722 6.8904 13.65 7.5 13.65L7.50106 13.65C8.11445 13.6457 8.70311 13.5657 9.26659 13.4097C9.82897 13.254 10.3593 13.031 10.8572 12.7409C11.3549 12.451 11.8053 12.1046 12.2081 11.7018C12.6107 11.2992 12.9571 10.8511 13.247 10.3577C13.5374 9.86365 13.7604 9.33303 13.9161 8.76631C14.0722 8.19852 14.15 7.6096 14.15 7L14.15 6.99894C14.1457 6.38555 14.0657 5.79689 13.9097 5.23341C13.754 4.67103 13.531 4.14069 13.2409 3.64275C12.951 3.14508 12.6046 2.69468 12.2018 2.29188C11.7992 1.88929 11.3511 1.54294 10.8577 1.253C10.3637 0.962618 9.83303 0.739617 9.26631 0.583878C8.69852 0.427843 8.1096 0.35 7.5 0.349996ZM7.5 12.5375L7.49877 12.5375C6.99662 12.5416 6.50728 12.4758 6.0303 12.3401C5.55107 12.2038 5.11025 12.0162 4.70726 11.7777C4.30335 11.5386 3.93008 11.25 3.58735 10.9114C3.2455 10.5736 2.95537 10.1991 2.71667 9.78754C2.47771 9.37553 2.29213 8.93443 2.16004 8.46386C2.02847 7.99513 1.9625 7.50734 1.96251 7L1.96249 6.99877C1.95838 6.49662 2.02421 6.00728 2.1599 5.5303C2.29623 5.05107 2.48384 4.61025 2.72235 4.20726C2.96139 3.80335 3.25004 3.43008 3.58864 3.08735C3.92638 2.7455 4.30091 2.45537 4.71246 2.21667C5.12447 1.97771 5.56557 1.79213 6.03614 1.66004C6.50487 1.52847 6.99266 1.4625 7.5 1.46251L7.50123 1.46249C8.00338 1.45838 8.49272 1.52421 8.9697 1.6599C9.44893 1.79623 9.88975 1.98384 10.2927 2.22235C10.6966 2.46139 11.0699 2.75004 11.4126 3.08864C11.7545 3.42638 12.0446 3.80091 12.2833 4.21246C12.5223 4.62447 12.7079 5.06557 12.84 5.53614C12.9715 6.00487 13.0375 6.49266 13.0375 7L13.0375 7.00123C13.0416 7.50338 12.9758 7.99272 12.8401 8.4697C12.7038 8.94893 12.5162 9.38975 12.2777 9.79274C12.0386 10.1966 11.75 10.5699 11.4114 10.9126C11.0736 11.2545 10.6991 11.5446 10.2875 11.7833C9.87553 12.0223 9.43443 12.2079 8.96386 12.34C8.49513 12.4715 8.00734 12.5375 7.5 12.5375Z" fill="#E84040" stroke="#E84040" stroke-width="0.3"/>
</svg>
