<svg width="45" height="45" viewBox="0 0 45 45" fill="none" xmlns="http://www.w3.org/2000/svg">
<path d="M24.375 24.375H20.625V13.125H24.375M24.375 31.875H20.625V28.125H24.375M22.5 3.75C20.0377 3.75 17.5995 4.23498 15.3247 5.17726C13.0498 6.11953 10.9828 7.50065 9.24175 9.24175C5.72544 12.7581 3.75 17.5272 3.75 22.5C3.75 27.4728 5.72544 32.2419 9.24175 35.7583C10.9828 37.4994 13.0498 38.8805 15.3247 39.8227C17.5995 40.765 20.0377 41.25 22.5 41.25C27.4728 41.25 32.2419 39.2746 35.7583 35.7583C39.2746 32.2419 41.25 27.4728 41.25 22.5C41.25 20.0377 40.765 17.5995 39.8227 15.3247C38.8805 13.0498 37.4994 10.9828 35.7583 9.24175C34.0172 7.50065 31.9502 6.11953 29.6753 5.17726C27.4005 4.23498 24.9623 3.75 22.5 3.75Z" fill="#E84040"/>
</svg>
