<svg width="30" height="30" viewBox="0 0 30 30" fill="none" xmlns="http://www.w3.org/2000/svg">
<path d="M15 0C6.71562 0 0 6.71562 0 15C0 23.2844 6.71562 30 15 30C23.2844 30 30 23.2844 30 15C30 6.71562 23.2844 0 15 0ZM15 3.75C21.2131 3.75 26.25 8.78687 26.25 15C26.25 21.2131 21.2131 26.25 15 26.25C8.78687 26.25 3.75 21.2131 3.75 15C3.75 8.78687 8.78687 3.75 15 3.75ZM9.96094 7.5C9.90031 7.49969 9.83556 7.507 9.7695 7.51956V7.51756C8.62594 7.73231 6.9405 9.689 7.68356 10.4317L12.2559 15.002L7.68363 19.5724C6.76925 20.4864 9.51331 23.2307 10.4277 22.3165L15 17.7441L19.5723 22.3164C20.4866 23.2306 23.2308 20.4864 22.3164 19.5723L17.7441 15.0019L22.3164 10.4317C23.2308 9.51762 20.4867 6.77544 19.5723 7.6895L15 12.2598L10.4277 7.6895C10.299 7.56163 10.1427 7.50106 9.96087 7.50012L9.96094 7.5Z" fill="#7C8DB5"/>
</svg>
