<svg width="25" height="30" viewBox="0 0 25 30" fill="none" xmlns="http://www.w3.org/2000/svg">
<path fill-rule="evenodd" clip-rule="evenodd" d="M5.3643 0.116656C5.18091 0.180011 5.02309 0.240526 5.01357 0.251152C4.99185 0.275357 5.77034 3.93703 5.81588 4.02493C5.84027 4.07198 5.93816 4.06346 6.17843 3.9934C6.35945 3.94067 6.52574 3.87799 6.54798 3.85418C6.57819 3.82191 5.96565 0.789135 5.78811 0.0918818C5.75805 -0.0261358 5.78178 -0.0275564 5.3643 0.116656ZM17.3555 0.194217C17.1872 0.334792 17.1602 0.442525 17.0349 1.4698C16.9697 2.00454 16.894 2.49178 16.8667 2.55258C16.7819 2.74151 16.6019 2.84765 16.4386 2.80487C16.3178 2.77322 16.1918 2.60849 15.7438 1.89652C15.1653 0.977213 15.0375 0.848854 14.8056 0.954087C14.7357 0.985793 14.4049 1.25819 14.0704 1.55946L13.4623 2.10727L13.0298 2.07477C11.7719 1.98039 10.3988 2.33069 9.21097 3.04925C8.45629 3.5057 7.87681 4.00902 7.2697 4.73525C6.00871 6.24363 5.26841 8.05367 5.04705 10.1695C4.99113 10.704 4.98265 10.7317 4.8749 10.7317C4.81255 10.7317 4.70299 10.802 4.63144 10.8879C4.5215 11.02 4.47982 11.1697 4.36259 11.8539C4.28623 12.2992 4.20634 12.6636 4.18496 12.6636C4.16362 12.6636 3.89505 12.4535 3.58814 12.1967C2.78582 11.5253 2.85037 11.51 1.95607 12.5834C1.35468 13.3051 1.24388 13.4647 1.24388 13.6092C1.24388 13.7307 1.36125 13.9846 1.64877 14.4852C1.87147 14.8729 2.05367 15.2041 2.05367 15.2211C2.05367 15.2383 1.74824 15.3267 1.37487 15.4178C0.801348 15.5576 0.675782 15.6073 0.565078 15.7384L0.434082 15.8936V17.0104V18.1272L0.565078 18.2824C0.675544 18.4134 0.800538 18.4633 1.36296 18.6003C1.72975 18.6897 2.03914 18.7717 2.05053 18.7825C2.06186 18.7933 1.88242 19.1328 1.65178 19.5369C1.27589 20.1953 1.2354 20.2912 1.26198 20.4601C1.28484 20.6054 1.44752 20.8342 1.97236 21.4591C2.85461 22.5097 2.78539 22.493 3.57528 21.8441C3.90124 21.5763 4.18053 21.3572 4.19591 21.3572C4.21125 21.3572 4.28623 21.7216 4.36259 22.1669C4.47982 22.851 4.5215 23.0008 4.63144 23.1329L4.76153 23.2891H5.69775H6.63397L6.76406 23.1329C6.874 23.0008 6.91568 22.851 7.03291 22.1669C7.10927 21.7216 7.18425 21.3572 7.19958 21.3572C7.21497 21.3572 7.49425 21.5763 7.82022 21.8441C8.56209 22.4536 8.58586 22.4539 9.08402 21.8637L9.42685 21.4574L9.44562 22.3591C9.46163 23.13 9.4792 23.2997 9.56676 23.5297C9.70042 23.8806 9.87862 24.1551 10.0789 24.3189L10.2403 24.4508L10.2555 26.015L10.2707 27.5791L10.4041 27.9201C10.5775 28.3632 10.8552 28.696 11.2178 28.8955C11.5033 29.0526 11.5295 29.0563 12.5073 29.0755C13.5975 29.0969 13.96 29.0465 14.272 28.8302C14.5589 28.6312 14.8185 28.2974 14.9574 27.9485C15.0809 27.6382 15.0819 27.6245 15.0976 26.045L15.1132 24.454L15.3014 24.2971C15.4049 24.2108 15.554 24.019 15.6327 23.8709C15.8812 23.4036 15.9155 23.1613 15.9155 21.8703C15.9155 19.9856 16.0564 19.5936 17.0293 18.7727C17.6699 18.2321 17.7946 18.0962 17.7442 17.9934C17.7209 17.9458 17.6042 17.7784 17.485 17.6213L17.2682 17.3358L17.1039 17.5001C17.0135 17.5904 16.7399 17.835 16.4958 18.0435C15.803 18.6354 15.4561 19.1586 15.2405 19.9367C15.1508 20.2603 15.1347 20.4826 15.11 21.7312L15.0818 23.1563L14.9484 23.3648C14.6973 23.7571 14.7467 23.7493 12.6399 23.7314L10.7471 23.7153L10.5915 23.583C10.2885 23.3251 10.2736 23.2425 10.2428 21.6413C10.2116 20.0148 10.1766 19.808 9.82213 19.1569C9.58948 18.7296 9.37021 18.4781 8.81784 18.0052C8.22521 17.4978 7.9234 17.1839 7.52426 16.6597C6.68803 15.5616 6.11351 14.1546 5.85761 12.5783C5.75896 11.9708 5.77382 10.2591 5.883 9.65205C6.32272 7.20749 7.52927 5.22306 9.27699 4.06988C10.1891 3.46814 11.1269 3.13716 12.2118 3.03425C12.5648 3.00079 12.581 3.00448 12.581 3.11897C12.581 3.29035 12.6304 3.3845 13.1818 4.26528C13.6933 5.08215 13.7625 5.28068 13.6155 5.50904C13.4682 5.73803 13.384 5.7436 12.4604 5.5853C11.4889 5.41881 11.359 5.43302 11.2502 5.7178C11.1647 5.94185 10.8431 8.7445 10.8821 8.92684C10.9368 9.18305 11.0963 9.25464 11.9376 9.40044C12.3725 9.47585 12.7814 9.55346 12.8463 9.5729C13.0886 9.6454 13.1882 10.0676 13.0206 10.3118C12.9753 10.3778 12.6357 10.7018 12.2659 11.032C11.5901 11.6354 11.533 11.7072 11.533 11.956C11.533 12.1092 13.0388 14.5492 13.1947 14.6488C13.4005 14.7802 13.523 14.7133 14.2333 14.0817C14.6214 13.7367 14.9862 13.4401 15.0441 13.4228C15.2017 13.3754 15.4065 13.478 15.4848 13.6436C15.5467 13.7746 15.5423 13.8953 15.4448 14.7471C15.3845 15.2731 15.3425 15.8032 15.3515 15.9252C15.3787 16.2989 15.4672 16.3395 16.7292 16.5582C18.0531 16.7875 18.2608 16.7981 18.3913 16.6425C18.5075 16.5038 18.5102 16.4899 18.6524 15.3058C18.7588 14.4201 18.7787 14.3292 18.8927 14.2119C19.0166 14.0846 19.171 14.0515 19.3211 14.1202C19.3645 14.1401 19.6259 14.5173 19.902 14.9584C20.1781 15.3995 20.4468 15.8051 20.4991 15.8598C20.7211 16.0918 20.8446 16.0211 21.965 15.0205C23.0237 14.075 23.1454 13.9273 23.0886 13.6573C23.0749 13.5919 22.83 13.1676 22.5443 12.7142C22.2587 12.2609 22.011 11.8373 21.9938 11.7729C21.9501 11.6086 22.0339 11.38 22.1794 11.2663C22.2963 11.1749 22.3489 11.1776 23.2039 11.3195C24.126 11.4725 24.258 11.4677 24.3913 11.276C24.4473 11.1956 24.819 8.4367 24.8221 8.07844C24.8227 8.00986 24.775 7.88724 24.716 7.80598C24.6171 7.66956 24.5378 7.64575 23.687 7.49659C23.1188 7.39704 22.7394 7.30431 22.698 7.25499C22.5875 7.12322 22.5395 6.84042 22.602 6.6895C22.6326 6.61569 22.9465 6.29437 23.2997 5.97543C24.0154 5.32926 24.1563 5.16278 24.1563 4.96328C24.1563 4.87571 23.8974 4.41222 23.4358 3.67378C22.5274 2.22018 22.5182 2.20847 22.2926 2.20847C22.1397 2.20847 22.0129 2.29842 21.4084 2.83589C21.0203 3.18091 20.6561 3.47729 20.5991 3.49439C20.4356 3.54354 20.2327 3.39513 20.1754 3.18443C20.1356 3.03806 20.1484 2.80106 20.2336 2.10551C20.371 0.984202 20.3713 0.886867 20.2383 0.702482C20.1368 0.561623 20.0637 0.54219 18.845 0.331667C18.1376 0.209445 17.5369 0.108701 17.5099 0.107792C17.483 0.106826 17.4135 0.145748 17.3555 0.194217ZM19.476 1.43644C19.4865 1.44894 19.4592 1.74924 19.4154 2.10375C19.302 3.02204 19.3102 3.32308 19.4579 3.67076C19.7522 4.36359 20.4762 4.66462 21.0356 4.32682C21.1145 4.27915 21.4103 4.03539 21.6929 3.78509C21.9755 3.53479 22.2132 3.33972 22.2212 3.35166C22.4133 3.63832 23.1172 4.78531 23.1324 4.83656C23.1442 4.87645 22.9542 5.08146 22.6979 5.30523C21.9467 5.96128 21.7631 6.27397 21.7628 6.89832C21.7626 7.47642 22.0442 7.98957 22.4814 8.20748C22.5756 8.25447 22.9415 8.34351 23.2943 8.40533C23.6471 8.46721 23.9418 8.52494 23.9491 8.53369C23.9564 8.54239 23.91 8.95741 23.846 9.4559C23.782 9.95445 23.7292 10.3772 23.7286 10.3954C23.7281 10.4137 23.4543 10.38 23.1202 10.3205C22.7862 10.2611 22.4031 10.2248 22.2689 10.2399C21.5506 10.3207 21.0578 11.1196 21.2049 11.9648C21.248 12.2122 21.3401 12.4022 21.6831 12.9507C21.9168 13.3245 22.108 13.6397 22.108 13.6514C22.108 13.6629 21.8207 13.9297 21.4696 14.2442L20.8312 14.8159L20.4097 14.1533C19.8654 13.2975 19.6768 13.146 19.1583 13.1479C18.7261 13.1494 18.4925 13.2733 18.2291 13.6403C18.0263 13.9228 17.9459 14.2301 17.8647 15.0324C17.8325 15.3509 17.7906 15.6415 17.7716 15.6782C17.7456 15.7283 17.5465 15.7129 16.9691 15.6157C16.0844 15.4669 16.1618 15.5676 16.2727 14.7091C16.3798 13.8801 16.3675 13.582 16.2111 13.2251C15.9745 12.6848 15.5265 12.3927 15.0277 12.4537C14.7151 12.4919 14.5778 12.579 13.9701 13.1248L13.4729 13.5712L13.0031 12.8236C12.7448 12.4124 12.5334 12.0581 12.5334 12.0364C12.5334 12.0147 12.7686 11.7848 13.0561 11.5257C13.3436 11.2666 13.6335 10.9605 13.7003 10.8455C14.1023 10.1536 13.9283 9.19396 13.3242 8.77166C13.1669 8.66171 12.9549 8.5987 12.4326 8.50653C12.0557 8.43999 11.7409 8.37937 11.7329 8.37181C11.7094 8.34936 11.9256 6.55904 11.9571 6.51529C11.9729 6.4933 12.2752 6.5262 12.6288 6.58842C13.486 6.73922 13.7875 6.6699 14.1489 6.23897C14.3687 5.97668 14.4504 5.74923 14.4756 5.32955C14.5046 4.84622 14.4205 4.61525 13.9393 3.85742C13.7388 3.54161 13.5816 3.26029 13.59 3.23228C13.6046 3.18324 14.7976 2.09483 14.8367 2.09483C14.8472 2.09483 15.0409 2.38871 15.267 2.74782C15.4932 3.10698 15.7584 3.46303 15.8564 3.53911C16.3624 3.9318 16.9593 3.84515 17.4023 3.31472C17.6168 3.05772 17.6956 2.78106 17.7979 1.92437C17.8408 1.56497 17.883 1.24297 17.8917 1.20876C17.9026 1.16575 18.1457 1.18768 18.6822 1.28013C19.1083 1.3536 19.4655 1.42394 19.476 1.43644ZM1.74071 3.03499C1.61834 3.23955 1.52616 3.41433 1.53583 3.42337C1.70603 3.58173 4.27608 5.74923 4.31452 5.76684C4.36268 5.78889 4.8448 5.06118 4.80778 5.02231C4.69713 4.90611 2.0289 2.66304 2.00132 2.66304C1.98036 2.66304 1.86308 2.83044 1.74071 3.03499ZM17.1713 4.6798C16.1865 4.93526 15.3761 5.69496 14.9439 6.7678C14.6917 7.39369 14.6144 7.79871 14.6159 8.48721C14.618 9.52147 14.932 10.4122 15.5602 11.1657C15.8814 11.5511 16.0206 11.671 16.395 11.8847C16.9848 12.2214 17.258 12.295 17.8923 12.2878C18.3183 12.2829 18.4876 12.2541 18.7974 12.1338C19.6824 11.79 20.347 11.0942 20.7554 10.084C21.3583 8.59222 21.0421 6.71547 19.9976 5.587C19.6398 5.20033 18.9769 4.79577 18.5116 4.67991C18.104 4.57848 17.5621 4.57843 17.1713 4.6798ZM9.35273 5.75928C8.21545 6.74638 7.41246 8.2368 7.13294 9.87933C6.69003 12.4819 7.58557 15.1716 9.41328 16.7283C9.62287 16.9068 10.1164 17.2386 10.5099 17.4656C11.1658 17.8438 11.2519 17.9117 11.5419 18.2784C11.9061 18.7388 12.1347 19.2555 12.2074 19.7823C12.301 20.4603 12.2462 20.3913 12.6909 20.3913H13.0848L13.052 20.0077C13.0071 19.4847 12.9678 19.2883 12.8209 18.8552C12.6534 18.3611 12.3998 17.9155 12.0646 17.526C11.6996 17.1018 11.526 16.9669 10.8709 16.5983C10.158 16.1973 9.7664 15.8916 9.32677 15.3935C8.52136 14.4809 7.99356 13.2094 7.86266 11.8663C7.66784 9.86729 8.4037 7.80757 9.73481 6.62615C9.91168 6.46921 10.0563 6.32022 10.0563 6.29505C10.0563 6.25351 9.6767 5.5041 9.65564 5.5041C9.65074 5.5041 9.51441 5.61894 9.35273 5.75928ZM18.4066 5.64553C19.2684 5.91327 19.9558 6.72598 20.1853 7.74854C20.3961 8.68745 20.139 9.7666 19.5319 10.4908C18.5794 11.6269 17.0871 11.6199 16.1272 10.4749C15.1696 9.33266 15.1768 7.54711 16.1436 6.41875C16.7735 5.68343 17.6094 5.39784 18.4066 5.64553ZM2.45014 7.8532C1.60714 8.10816 0.904239 8.33277 0.888091 8.35232C0.855699 8.39158 0.99889 9.14236 1.05248 9.21424C1.07782 9.24822 3.91953 8.4471 4.22835 8.31897C4.30028 8.28908 4.11307 7.37698 4.03653 7.38443C4.00704 7.38733 3.29313 7.5983 2.45014 7.8532ZM5.31086 13.7961C5.35335 13.9659 5.38812 14.1103 5.38812 14.1172C5.38812 14.124 5.27561 14.1608 5.13804 14.199C4.16404 14.4694 3.38054 15.5321 3.26617 16.738C3.16995 17.7523 3.64873 18.919 4.37731 19.4456C5.53279 20.2808 6.9566 19.924 7.69861 18.6131L7.8528 18.3406L7.98999 18.4739C8.0654 18.5473 8.26947 18.7267 8.44348 18.8726C8.81998 19.1886 9.10384 19.5589 9.24594 19.9194L9.34959 20.1824L8.91873 20.6963L8.48787 21.2102L8.00719 20.8223C7.74277 20.6089 7.44529 20.4098 7.34611 20.3798C7.01128 20.2784 6.63544 20.4964 6.46567 20.8903C6.42909 20.9752 6.34954 21.3324 6.28895 21.6839L6.17872 22.3232H5.6947H5.21063L5.13046 21.8417C4.95798 20.8057 4.81621 20.5289 4.38769 20.3912C4.11088 20.3023 3.92415 20.383 3.37902 20.8271L2.90815 21.2107L2.54231 20.7743L2.17647 20.338L2.50034 19.7723C2.6785 19.4612 2.84294 19.1088 2.8658 18.9892C2.95712 18.5118 2.69936 18.0123 2.28608 17.8659C2.15685 17.8202 1.86947 17.7396 1.64749 17.6871L1.24388 17.5914V17.0106V16.4297L1.77939 16.3025C2.07396 16.2325 2.37149 16.1403 2.44061 16.0976C2.7469 15.9087 2.94159 15.4275 2.86775 15.0418C2.84598 14.928 2.68603 14.5865 2.51235 14.2831C2.33867 13.9797 2.19658 13.7143 2.19658 13.6933C2.19658 13.6723 2.35639 13.4658 2.5517 13.2343L2.90677 12.8136L3.40832 13.2188C3.94883 13.6556 4.12646 13.729 4.41594 13.6354C4.73462 13.5324 4.9555 13.2141 5.03133 12.7488C5.06797 12.5242 5.06935 12.5272 5.15099 13.0045C5.19639 13.2701 5.26837 13.6263 5.31086 13.7961ZM5.84665 15.4052C6.12389 16.0579 6.43276 16.59 6.95536 17.3153L7.21602 17.677L7.10369 17.9296C6.94926 18.2769 6.58047 18.6563 6.25517 18.8027C6.03529 18.9016 5.91101 18.9203 5.60248 18.9007C4.9645 18.8601 4.51635 18.496 4.23369 17.7886C4.10064 17.4556 4.09207 17.3956 4.11212 16.9363C4.12741 16.5854 4.164 16.3667 4.23835 16.1819C4.47977 15.5818 5.03543 15.1257 5.54212 15.1118C5.71013 15.1072 5.72695 15.1234 5.84665 15.4052ZM20.3931 18.4877V18.9707H21.7984H23.2036V18.4877V18.0048H21.7984H20.3931V18.4877ZM19.9653 20.8782C19.825 21.0845 19.7314 21.27 19.7551 21.295C19.7786 21.3198 20.3213 21.8598 20.9612 22.495L22.1248 23.6498L22.3772 23.3132C22.5161 23.1281 22.6302 22.9581 22.6308 22.9355C22.6317 22.9042 20.7221 20.9771 20.2934 20.5767C20.2293 20.5168 20.1808 20.5614 19.9653 20.8782ZM12.2952 22.0675V22.7777H12.7001H13.105V22.0675V21.3572H12.7001H12.2952V22.0675ZM17.9638 23.5141V25.2211H18.3694H18.775L18.7624 23.5306L18.7497 21.8402L18.3567 21.8237L17.9638 21.8072V23.5141ZM14.2959 25.1926V25.6756H12.6763H11.0567V25.2305C11.0567 24.9857 11.071 24.7684 11.0885 24.7476C11.1059 24.7267 11.8347 24.7097 12.708 24.7097H14.2959V25.1926ZM14.2959 26.993C14.2959 27.4304 14.1726 27.7531 13.931 27.9485C13.7589 28.0877 13.7349 28.0909 12.7276 28.1063C11.5713 28.124 11.4964 28.1043 11.2346 27.7133C11.1279 27.554 11.0903 27.4279 11.0701 27.1631C11.027 26.5955 10.883 26.6416 12.6986 26.6416H14.2959V26.993Z" fill="#4A3AFF"/>
</svg>
